<?xml version="1.0" encoding="utf-8"?>
<!-- Generator: Adobe Illustrator 27.5.0, SVG Export Plug-In . SVG Version: 6.00 Build 0)  -->
<svg version="1.1" xmlns="http://www.w3.org/2000/svg" xmlns:xlink="http://www.w3.org/1999/xlink" x="0px" y="0px"
	 viewBox="0 0 500 500" style="enable-background:new 0 0 500 500;" xml:space="preserve">
<g id="Floor">
	<path id="Floor_00000177474578068378953470000001039455912499036082_" style="fill:#F5F5F5;" d="M111.838,291.54
		c-76.303,44.054-76.301,115.478,0.004,159.532c76.305,44.053,200.018,44.053,276.32,0c76.303-44.054,76.301-115.479-0.004-159.532
		C311.853,247.487,188.14,247.487,111.838,291.54z"/>
</g>
<g id="Plants">
	<g id="Plants_00000116203701460349644980000016791667976910751935_">
		<g id="XMLID_00000133529337049177602110000014926794997738720146_">
			<path style="fill:#BA68C8;" d="M69.159,333.608l-11.545,6.665c0.154-4.12,0.513-10.25-0.056-14.375
				c-3.486-25.235-13.317-33.555-17.992-45.837c-4.922-12.934,1.081-17.097,8.879-14.771c6.954,2.074,17.017,12.366,20.187,31.196
				C70.739,309.016,70.366,322.622,69.159,333.608z"/>
			<path style="opacity:0.65;fill:#FFFFFF;" d="M69.159,333.608l-11.545,6.665c0.154-4.12,0.513-10.25-0.056-14.375
				c-3.486-25.235-13.317-33.555-17.992-45.837c-4.922-12.934,1.081-17.097,8.879-14.771c6.954,2.074,17.017,12.366,20.187,31.196
				C70.739,309.016,70.366,322.622,69.159,333.608z"/>
			<g id="XMLID_00000088823193463246975380000003824271274365946498_">
				<path style="fill:#FFFFFF;" d="M63.039,337.141l-1.156,0.667c4.13-29.42-5.929-54.935-15.857-65.474
					c-0.191-0.201-0.182-0.522,0.019-0.713c0.21-0.191,0.527-0.182,0.718,0.019C56.686,282.182,66.74,307.87,63.039,337.141z"/>
			</g>
		</g>
		<g id="XMLID_00000167378378342974174700000009701482768885369020_">
			<path style="fill:#BA68C8;" d="M60.857,338.399l-6.497,3.752h-0.005c-3.454-10.17-7.001-14.244-11.406-20.933
				c-4.013-6.087-8.679-9.858-11.158-14.137c-2.195-3.789-3.845-8.548-0.583-11.429c5.193-4.586,11.97,0.266,16.631,5.509
				C51.866,305.697,59.967,317.76,60.857,338.399z"/>
			<path style="opacity:0.3;fill:#FFFFFF;" d="M60.857,338.399l-6.497,3.752h-0.005c-3.454-10.17-7.001-14.244-11.406-20.933
				c-4.013-6.087-8.679-9.858-11.158-14.137c-2.195-3.789-3.845-8.548-0.583-11.429c5.193-4.586,11.97,0.266,16.631,5.509
				C51.866,305.697,59.967,317.76,60.857,338.399z"/>
			<g id="XMLID_00000117657747884672987190000005540445140195207863_">
				<path style="fill:#FFFFFF;" d="M58.191,339.937l-0.946,0.55c-2.727-16.085-13.652-34.697-20.443-39.092
					c-0.238-0.154-0.308-0.475-0.149-0.718c0.154-0.242,0.471-0.312,0.713-0.154C44.395,305.082,55.297,323.605,58.191,339.937z"/>
			</g>
		</g>
	</g>
	<g id="Plants_00000060718754869910351430000003202978255900727682_">
		<g id="XMLID_00000145754523265426466130000010213858618937808530_">
			<path style="fill:#BA68C8;" d="M425.984,333.608l11.545,6.665c-0.154-4.12-0.513-10.25,0.056-14.375
				c3.486-25.235,13.316-33.555,17.992-45.837c4.922-12.934-1.081-17.097-8.879-14.771c-6.954,2.074-17.017,12.366-20.187,31.196
				C424.404,309.016,424.777,322.622,425.984,333.608z"/>
			<path style="opacity:0.65;fill:#FFFFFF;" d="M425.984,333.608l11.545,6.665c-0.154-4.12-0.513-10.25,0.056-14.375
				c3.486-25.235,13.316-33.555,17.992-45.837c4.922-12.934-1.081-17.097-8.879-14.771c-6.954,2.074-17.017,12.366-20.187,31.196
				C424.404,309.016,424.777,322.622,425.984,333.608z"/>
			<g id="XMLID_00000143586762584319982070000007909190080482349966_">
				<path style="fill:#FFFFFF;" d="M432.104,337.141l1.156,0.667c-4.13-29.42,5.929-54.935,15.857-65.474
					c0.191-0.201,0.182-0.522-0.019-0.713c-0.21-0.191-0.527-0.182-0.718,0.019C438.457,282.182,428.404,307.87,432.104,337.141z"/>
			</g>
		</g>
		<g id="XMLID_00000127739057823443091850000004486039749531487133_">
			<path style="fill:#BA68C8;" d="M434.286,338.399l6.497,3.752h0.005c3.454-10.17,7.001-14.244,11.406-20.933
				c4.013-6.087,8.679-9.858,11.159-14.137c2.195-3.789,3.845-8.548,0.583-11.429c-5.192-4.586-11.97,0.266-16.631,5.509
				C443.277,305.697,435.176,317.76,434.286,338.399z"/>
			<path style="opacity:0.3;fill:#FFFFFF;" d="M434.286,338.399l6.497,3.752h0.005c3.454-10.17,7.001-14.244,11.406-20.933
				c4.013-6.087,8.679-9.858,11.159-14.137c2.195-3.789,3.845-8.548,0.583-11.429c-5.192-4.586-11.97,0.266-16.631,5.509
				C443.277,305.697,435.176,317.76,434.286,338.399z"/>
			<g id="XMLID_00000019649653194274231020000007097701201713272735_">
				<path style="fill:#FFFFFF;" d="M436.952,339.937l0.946,0.55c2.727-16.085,13.652-34.697,20.443-39.092
					c0.238-0.154,0.308-0.475,0.149-0.718c-0.154-0.242-0.471-0.312-0.713-0.154C450.749,305.082,439.846,323.605,436.952,339.937z"
					/>
			</g>
		</g>
	</g>
</g>
<g id="Shadows">
	<path id="Shadow_00000183222809672715798180000011812844106445107387_" style="fill:#E0E0E0;" d="M361.285,387.546
		c-23.753-13.714-23.751-35.949,0.005-49.662c23.756-13.714,62.268-13.716,86.019-0.003c23.75,13.712,23.748,35.947-0.005,49.662
		C423.55,401.259,385.039,401.26,361.285,387.546z"/>
	<path id="Shadow_00000055687530576574203820000016475064286687148447_" style="fill:#E0E0E0;" d="M152.587,421.635
		c-23.753-13.714-23.751-35.949,0.005-49.662c23.756-13.714,62.268-13.716,86.019-0.003c23.75,13.712,23.748,35.947-0.005,49.663
		C214.852,435.347,176.341,435.348,152.587,421.635z"/>
	<path id="Shadow_00000163777098755567575100000013451200808649515661_" style="fill:#E0E0E0;" d="M259.795,422.189
		c-23.753-13.714-23.751-35.949,0.005-49.662c23.756-13.714,62.268-13.716,86.019-0.003c23.75,13.712,23.748,35.947-0.005,49.663
		C322.06,435.901,283.548,435.902,259.795,422.189z"/>
	<path id="Shadow_00000155847975376772883250000001936341522908486037_" style="fill:#E0E0E0;" d="M50.836,387.988
		c-23.753-13.714-23.751-35.949,0.005-49.662c23.756-13.714,62.268-13.715,86.019-0.003c23.75,13.712,23.748,35.947-0.005,49.662
		C113.101,401.701,74.589,401.702,50.836,387.988z"/>
</g>
<g id="Character_4">
	<g id="Character_00000078724484185603998090000005693016514408056963_">
		<g id="Bottom_00000144299514455996581160000016550688409447413435_">
			<g>
				<path style="fill:#B16668;" d="M65.638,296.101c0.951,17.173,2.159,35.515,2.2,36.36c0.247,5.044-0.553,7.879-2.563,9.965
					c-4.209,4.369-10.274,7.074-15.521,10.858c0.718,1.995,7.824,2.985,10.934,1.527c4.969-2.329,9.922-5.927,11.625-7.144
					c4.31-3.082,10.703-3.947,10.852-8.743c0.021-0.597,0.294-2.145,0.265-2.24c0.114-2.517,3.947-28.469,5.745-40.582H65.638z"/>
				<path style="fill:#B16668;" d="M130.903,308.506c-0.008-4.069-0.072-8.366-0.23-12.405h-24.252
					c1.457,6.752,2.918,13.273,4.09,18.04c2.014,8.194,4.34,17.976,5.941,26.977c-0.256,3.618,3.179,22.491,4.016,26.875
					c0.836,4.384,10.357,4.656,11.091-2.848c0.489-4.995-0.862-21.058-0.941-23.457C130.3,331.905,131.041,325.479,130.903,308.506z
					"/>
			</g>
			<g>
				<path style="fill:#263238;" d="M43.259,360.089c-0.263,0.003-0.632,2.912,0.812,4.132c1.667,1.409,6.542,3.7,12.942,2.806
					c6.401-0.894,9.852-2.912,12.395-5.085c2.543-2.172,6.107-5.237,9-5.905c2.687-0.621,5.599-1.871,6.453-2.712
					c0.853-0.841,0.696-4.541,0.696-4.541L43.259,360.089z"/>
				<path id="XMLID_00000109013535320735187420000000973213498901548955_" style="fill:#37474F;" d="M83.692,334.26
					c0,0,0.633,0.142,0.808,0.997c0.207,1.018-0.212,4.147,0.229,5.816c0.612,2.321,1.054,7.086,0.721,8.986
					c-0.334,1.9-4.711,3.262-7.506,4.359c-2.855,1.12-6.147,3.404-9.032,5.833c-2.987,2.513-9.297,5.069-13.474,5.173
					c-6.376,0.158-10.524-1.53-11.822-3.809c-1.606-2.82-1.293-5.402,6.001-8.872c1.381-0.657,6.225-3.59,7.875-4.652
					c1.744-1.122,3.413-2.368,4.949-3.762c0.777-0.706,1.52-1.45,2.215-2.237c0.612-0.692,1.475-1.531,1.833-2.389
					c0.081-0.194,0.136-0.421,0.208-0.623c0.208-0.582,0.349-1.118,0.46-1.723c0.112-0.61,0.177-1.499,0.753-1.87
					c0.661-0.426,1.862-0.386,2.616-0.336c0.949,0.062,3.052,0.507,3.973,0.739c1.642,0.415,2.095,0.873,2.745,1.88
					c0.497,0.771,0.583,1.751,0.631,2.649c0.023,0.427,0.017,0.859,0.026,1.287c0.003,0.183-0.071,0.512,0.184,0.433
					c0.243-0.075,0.508-0.717,0.599-0.935c0.199-0.481,0.323-0.995,0.541-1.468c0.249-0.542,0.53-1.097,0.896-1.561
					c0.342-0.433,0.715-0.849,1.148-1.193c0.394-0.313,0.898-0.472,1.247-0.826C82.956,335.706,83.657,334.623,83.692,334.26z"/>
				<path style="fill:#FAFAFA;" d="M48.441,353.314c9.24,0.542,13.112,7.141,13.539,10.666c-2.28,0.833-4.633,1.397-6.542,1.444
					c-6.376,0.158-10.786-1.525-12.084-3.804C41.838,358.96,41.921,355.864,48.441,353.314z"/>
				<g>
					<g>
						<path style="fill:#F0F0F0;" d="M63.189,354.194c0.1-0.001,0.201-0.035,0.285-0.105c0.191-0.159,0.216-0.444,0.057-0.635
							c-1.301-1.561-5.936-4.533-9.288-4.134c-0.248,0.029-0.425,0.254-0.395,0.5c0.029,0.247,0.247,0.424,0.5,0.395
							c3.129-0.364,7.458,2.578,8.491,3.816C62.928,354.14,63.058,354.195,63.189,354.194z"/>
					</g>
					<g>
						<path style="fill:#F0F0F0;" d="M67.142,351.837c0.101-0.001,0.201-0.035,0.285-0.105c0.192-0.159,0.216-0.444,0.057-0.635
							c-1.303-1.562-5.939-4.54-9.288-4.134c-0.248,0.029-0.425,0.254-0.395,0.501c0.029,0.246,0.243,0.424,0.5,0.395
							c3.129-0.368,7.459,2.578,8.49,3.816C66.881,351.783,67.011,351.839,67.142,351.837z"/>
					</g>
					<g>
						<path style="fill:#F0F0F0;" d="M70.799,349.154c0.101-0.001,0.201-0.035,0.285-0.105c0.191-0.159,0.216-0.444,0.057-0.635
							c-1.301-1.562-5.951-4.536-9.288-4.134c-0.248,0.029-0.425,0.254-0.395,0.5c0.029,0.247,0.244,0.422,0.501,0.395
							c3.125-0.365,7.458,2.578,8.49,3.816C70.538,349.1,70.668,349.155,70.799,349.154z"/>
					</g>
					<g>
						<path style="fill:#F0F0F0;" d="M74.382,346.471c0.098-0.001,0.197-0.034,0.279-0.1c0.194-0.156,0.223-0.441,0.067-0.634
							c-1.791-2.215-6.709-4.572-10.057-4.172c-0.248,0.029-0.425,0.254-0.395,0.5c0.029,0.247,0.246,0.417,0.501,0.395
							c3.014-0.358,7.661,1.88,9.251,3.843C74.117,346.415,74.25,346.472,74.382,346.471z"/>
					</g>
				</g>
			</g>
			<g>
				<path style="fill:#263238;" d="M117.422,371.348c0.182,4.358,0.811,7.256,2.314,9.835c1.503,2.579,4.404,3.429,7.368,2.73
					c2.964-0.699,6.777-2.635,7.686-6.378c0.908-3.742,1.443-6.308,0.84-10.358L117.422,371.348z"/>
				<path id="XMLID_00000113355415381537200420000014807211050704504996_" style="fill:#37474F;" d="M130.567,339.684
					c1.215,0.115,1.117,6.306,1.722,12.172c0.648,6.287,2.478,8.913,3.065,14.069c0.67,5.891-0.346,8.5-2.464,12.02
					c-2.117,3.52-9.466,6.886-12.975,1.737c-2.861-4.198-2.583-8.79-2.542-14.666c0.043-6.152-0.292-10.304-0.869-14.879
					c-0.665-5.273-1.117-8.547-0.052-9.019c0.07,0.648,0.136,1.469,0.212,2.105c0.093,0.783,0.305,2.325,0.305,2.325
					c0.119,0.329,0.432,0.705,0.551,0.174c0.081-0.36,0.051-0.733,0.018-1.095c-0.151-1.624,0.668-1.742,1.11-1.861
					c0.96-0.257,5.518-0.972,6.43-1.019c0.93-0.048,4.14-0.135,4.548,0.401c0.276,0.362,0.307,0.963,0.381,1.706
					c0.089,0.886,0.1,1.44,0.313,1.26c0.253-0.213,0.262-1.887,0.253-2.285c-0.009-0.381-0.014-1.248-0.013-1.631
					C130.562,340.823,130.587,340.06,130.567,339.684z"/>
				<path style="fill:#FAFAFA;" d="M135.779,369.335c0.149,3.653-0.764,6.138-2.422,8.894c-2.118,3.52-10.053,6.888-13.562,1.739
					c-1.746-2.562-2.176-5.564-2.371-8.623C119.642,367.458,132.437,365.94,135.779,369.335z"/>
				<g>
					<g>
						<path style="fill:#F0F0F0;" d="M120.182,364.998c0.051-0.004,0.101-0.017,0.151-0.039c0.049-0.022,5.715-2.257,11.172-0.899
							c0.241,0.056,0.486-0.088,0.547-0.33c0.06-0.242-0.088-0.487-0.33-0.547c-5.771-1.433-11.549,0.857-11.765,0.954
							c-0.227,0.105-0.326,0.372-0.222,0.599C119.815,364.914,119.998,365.014,120.182,364.998z"/>
					</g>
					<g>
						<path style="fill:#F0F0F0;" d="M131.305,359.676c0.17-0.014,0.326-0.126,0.387-0.297c0.083-0.235-0.039-0.493-0.273-0.578
							c-5.422-1.937-11.519,0.735-11.749,0.852c-0.223,0.111-0.313,0.382-0.2,0.605c0.113,0.222,0.387,0.307,0.605,0.2
							c0.052-0.025,5.994-2.615,11.039-0.806C131.178,359.674,131.242,359.681,131.305,359.676z"/>
					</g>
					<g>
						<path style="fill:#F0F0F0;" d="M131.181,355.542c0.168-0.014,0.321-0.123,0.384-0.29c0.088-0.234-0.029-0.494-0.262-0.581
							c-5.962-2.247-11.756,0.687-11.971,0.813c-0.215,0.126-0.287,0.402-0.161,0.617c0.126,0.215,0.407,0.288,0.617,0.161
							c0.048-0.029,5.647-2.838,11.196-0.748C131.049,355.539,131.116,355.547,131.181,355.542z"/>
					</g>
					<g>
						<path style="fill:#EBEBEB;" d="M130.95,351.47c0.165-0.014,0.317-0.119,0.382-0.284c0.091-0.232-0.022-0.494-0.254-0.585
							c-5.585-2.197-11.819,0.806-12.053,0.938c-0.218,0.119-0.296,0.394-0.176,0.612c0.119,0.218,0.393,0.301,0.613,0.176
							c0.054-0.029,6.099-2.928,11.285-0.887C130.814,351.466,130.883,351.476,130.95,351.47z"/>
					</g>
				</g>
			</g>
			<g>
				<path style="fill:#37474F;" d="M121.052,174.775c5.304,10.063,8.115,19.648,8.18,49.308c0.065,29.661,0.053,37.465,0.11,41.042
					c0.057,3.577,2.089,12.167,2.171,29.876c0.069,15.001-0.062,26.382-0.062,26.382s-1.746,3.545-8.491,4.038
					c-6.222,0.454-10.763-1.928-10.763-1.928s-6.46-25.524-8.503-36.199c-2.362-12.342-8.217-41.038-8.217-41.038l-3.387,23.871
					c0,0,0.576,9.48-0.956,21.045c-2.042,15.428-4.567,27.147-4.567,27.147s-5.676,1.557-10.99,1.39
					c-5.314-0.168-9.278-2.536-9.278-2.536s-2.524-32.371-2.825-54.21c-0.242-17.507,0.235-60.847,4.517-88.189H121.052z"/>
				<path style="fill:#263238;" d="M127.506,278.512c-1.349-9.343-1.964-13.607-2.278-37.787
					c-0.21-16.139-0.895-28.388-2.297-38.646c0.015-0.103,0.003-0.202-0.04-0.291c-1.311-9.466-3.24-17.24-5.985-24.814
					l-0.898,0.326c2.685,7.41,4.585,15.017,5.886,24.248c-3.021,0.139-6.065-0.725-7.843-3.346c-0.94-1.386-1.49-2.981-1.945-4.581
					c-0.503-1.77-0.931-3.56-1.417-5.335c-0.6-2.191-1.142-4.389-1.975-6.505c-0.092-0.233-0.621-0.458-0.57-0.042
					c0.259,2.094,0.797,4.125,1.291,6.174c0.483,2.002,0.966,4.009,1.515,5.994c0.911,3.298,2.415,6.51,5.763,7.898
					c1.683,0.697,3.515,0.911,5.324,0.801c1.361,10.136,2.028,22.238,2.235,38.132c0.315,24.242,0.933,28.526,2.287,37.911
					c1.39,9.637,3.142,33.156,2.782,44.839c0.386-0.255,0.709-0.509,0.976-0.751C130.582,310.764,128.87,287.971,127.506,278.512z"
					/>
				<path style="fill:#263238;" d="M73.272,201.15c2.52,7.273,12.042,12.493,16.247,13.575l3.315,31.547l-0.743,23.854l3.387-23.871
					l-4.119-37.164C91.358,209.092,79.666,208.062,73.272,201.15z"/>
			</g>
		</g>
		<g id="Top_00000178174252614017292910000001443102474830669446_">
			<path id="Hair" style="fill:#263238;" d="M116.104,76.562c3.394,1.308,5.757,4.966,5.498,8.604
				c-0.06,0.848-0.247,1.688-0.238,2.539c0.009,0.85,0.248,1.751,0.888,2.311c0.64,0.561,1.745,0.623,2.287-0.033
				c0.263,1.704-1.099,3.487-2.812,3.681c0.541-0.061,1.681,2.512,1.838,2.938c0.341,0.922,0.647,2.242,0.446,3.225
				c-0.439,2.149-2.853,4.149-4.736,4.989c0.287,0.601,0.314,1.297,0.225,1.957c-0.251,1.85-1.425,3.551-3.065,4.443
				c-1.64,0.892-3.706,0.952-5.396,0.158c-1.762,2.56-4.95,4.064-8.045,3.797c-3.096-0.267-5.979-2.296-7.275-5.12
				c0.019,0.042-3.59,0.879-3.937,0.916c-1.187,0.126-2.327-0.047-3.503-0.176c-2.074-0.227-3.017-1.263-4.628-2.502
				c-1.596,1.28-3.418,2.076-5.514,1.65c-1.963-0.399-3.682-1.84-4.417-3.703c-0.058-0.147-0.114-0.302-0.23-0.408
				c-0.191-0.175-0.48-0.166-0.739-0.169c-2.288-0.028-4.335-1.861-4.932-4.07c-0.394-1.458-0.212-3.019,0.355-4.406
				c0.403-0.984,1.53-2.895,2.905-2.709c-1.042-0.141-2.115-0.303-3.01-0.854c-0.895-0.551-1.572-1.596-1.368-2.627
				c-1.192,0.693-1.218,2.718-0.044,3.441c-1.792-0.449-3.258-1.999-3.607-3.813c-0.349-1.814,0.438-3.797,1.935-4.879
				c1.434-1.036,3.574-1.472,4.093-3.164c0.396-1.29-0.414-2.6-0.8-3.893c-0.601-2.012-0.113-4.316,1.254-5.911
				c1.367-1.595,3.568-2.431,5.649-2.145c-0.732-1.414-0.225-3.252,0.916-4.362c1.141-1.11,2.781-1.58,4.372-1.638
				c1.89-0.069,3.888,0.449,5.2,1.811c-0.769-2.251,0.918-4.993,3.273-5.323c-0.401,1.408,0.758,2.892,2.156,3.326
				s2.914,0.077,4.295-0.409c1.381-0.486,2.746-1.105,4.206-1.206c2.782-0.192,4.461,1.398,6.464,2.947
				c1.896,1.467,4.501,1.538,6.552,2.721c2.657,1.533,4.022,4.999,3.123,7.932C115.861,76.472,115.983,76.515,116.104,76.562z"/>
			<g id="Arm_00000043449456495146891180000001065096871751252366_">
				<g>
					<g>
						<path style="fill:#B16668;" d="M66.307,126.751c-7.53,9.079-9.824,11.966-14.39,17.396c0.022-0.026-2.083-2.114-2.202-2.236
							c-2.34-2.409-4.647-4.854-6.844-7.394c-2.512-2.904-4.771-5.935-5.337-9.872c-0.123-0.859-0.127-1.73-0.131-2.598
							c-0.011-2.491-0.022-4.982-0.032-7.472c-0.005-1.191-0.175-2.513-0.006-3.691c0.107-0.748,0.585-1.612,0.515-2.385
							c-0.084-0.919-1.21-1.341-2.943,0.043c-1.074,0.858-1.613,2.379-1.992,3.367c-0.423,1.1-0.678,2.55-1.081,2.58
							c-0.404,0.03-1.584-1.433-2.958-2.483c-1.374-1.049-2.437-2.315-4.366-2.565c-1.929-0.25-2.548,1.379-2.58,2.044
							c-0.034,0.698,0.45,1.434,0.45,1.434s-0.836-0.544-1.863-0.225c-1.028,0.319-1.767,2.026-1.368,2.961
							c0,0-1.078-0.508-1.828,0.592c-0.63,0.925-0.967,1.973-0.135,2.819c0,0-0.919-0.177-1.189,0.287
							c-0.269,0.463-1.06,1.899-0.475,2.839c0.585,0.939,2.579,1.969,2.579,1.969s-0.011,0.43,0.728,1.354
							c0.258,0.323,0.975,2.392,2.01,3.731c1.424,1.842,2.924,2.451,4.687,3.696c2.864,2.023,5.637,7.721,8.553,13.366
							c3.474,6.725,6.338,12.761,10.193,17.234c4.805,5.575,8.682,5.825,15.596-0.642c8.779-8.212,17.121-20.796,17.121-20.796
							l4.962-22.069C75.878,120.191,70.806,121.326,66.307,126.751z"/>
						<path style="fill:#9A4A4D;" d="M22.178,122.749c-0.034,0.172-0.136,0.265-0.216,0.409c-0.095,0.169-0.209,0.302-0.352,0.435
							c-0.201,0.186-0.411,0.37-0.661,0.483c-0.154,0.07-0.319,0.11-0.485,0.141c-0.501,0.091-0.973,0.053-1.474,0.005
							c-0.286-0.027-0.573-0.041-0.859-0.061c0.352,0.182,0.722,0.31,1.113,0.397c0.458,0.095,0.968,0.079,1.428,0.007
							c0.11-0.017,0.22-0.039,0.327-0.073c0.295-0.094,0.554-0.282,0.758-0.515c0.207-0.237,0.429-0.576,0.491-0.89
							c0.006-0.031,0.044-0.315,0.008-0.322c0.321,0.058,0.639,0.059,0.944,0.058c0.473-0.031,0.983,0.02,1.472-0.278
							c0.232-0.163,0.371-0.347,0.526-0.559c0.046-0.068,0.077-0.144,0.102-0.223l0.514-0.314c0,0-0.252,1.139,0.354,3.056
							c0.606,1.917,2.025,3.162,2.025,3.162s-1.039-1.08-1.429-3.533c-0.335-2.109,0.923-4.36,1.91-5.358
							c0.029,0,0.053,0.012,0.083,0.009c0.221-0.035,0.371-0.148,0.503-0.252c0.289-0.242,0.42-0.599,0.459-0.928
							c0.036-0.334-0.001-0.66-0.073-0.972c-0.298-1.251-1.186-2.217-2.146-2.953c-0.001-0.286-0.063-0.545-0.144-0.802
							c-0.089-0.271-0.212-0.528-0.352-0.773c0.109,0.26,0.196,0.528,0.262,0.798c0.062,0.267,0.101,0.556,0.07,0.809l-0.005,0.046
							l0.038,0.034c0.899,0.787,1.678,1.776,1.925,2.921c0.122,0.548,0.104,1.202-0.284,1.515c-0.238,0.184-0.36,0.211-0.605,0.055
							c-0.239-0.141-0.495-0.332-0.757-0.495c-0.53-0.336-1.085-0.593-1.595-0.903c-0.509-0.308-0.967-0.684-1.389-1.112
							c-0.42-0.429-0.794-0.907-1.179-1.38c-0.379-0.475-0.77-0.945-1.077-1.471c0.527,1.109,1.25,2.101,2.038,3.052
							c0.406,0.467,0.881,0.893,1.415,1.219c0.527,0.332,1.078,0.6,1.572,0.927c0.102,0.066,0.2,0.136,0.299,0.206
							c0.118,0.259,0.154,0.548,0.07,0.81c-0.134,0.479-0.579,0.777-1.064,0.848c-0.515,0.086-1.02,0.167-1.523,0.147
							c-0.499-0.038-1.039-0.079-1.458-0.283c-0.872-0.428-1.547-1.297-2.299-2.015c-0.746-0.738-1.496-1.473-2.281-2.175
							c0.657,0.823,1.35,1.612,2.046,2.397c0.345,0.396,0.704,0.776,1.072,1.16c0.374,0.372,0.769,0.763,1.291,1.003
							c0.326,0.118,0.656,0.185,0.987,0.228c0.261,0.224,0.471,0.498,0.532,0.813c0.046,0.21,0.004,0.422-0.121,0.581
							c-0.135,0.16-0.31,0.346-0.479,0.439c-0.352,0.181-0.849,0.166-1.309,0.172c-0.462-0.007-0.938-0.025-1.3-0.217
							c-0.377-0.179-0.657-0.558-1.032-0.893c-0.372-0.324-0.766-0.601-1.173-0.851c-0.808-0.509-1.629-0.988-2.479-1.423
							c0.758,0.578,1.536,1.124,2.301,1.684c0.376,0.288,0.765,0.553,1.098,0.867c0.327,0.298,0.61,0.729,1.098,0.982
							C21.866,122.671,22.022,122.716,22.178,122.749z M27.902,118.462c-0.004-0.01-0.005-0.022-0.01-0.032c0,0,0.001,0,0.001,0.001
							C27.896,118.441,27.9,118.452,27.902,118.462z"/>
						<path style="fill:#9A4A4D;" d="M51.917,144.146c2.228,2.047,4.943,5.002,4.814,9.468c1.174-4.949-1.352-9.152-3.682-10.816
							L51.917,144.146z"/>
					</g>
				</g>
			</g>
			<g id="Chest_00000065061278557529402430000012298052759998814624_">
				<path id="Chest_00000128483642036527061930000007891194761112498852_" style="fill:#BA68C8;" d="M124.257,179.333
					c-2.713-8.223-2.703-12.401-1.486-17.995c1.217-5.594,3.268-12.293,3.132-11.277c0,0-8.228-6.745-5.485-26.252l-12.518-3.247
					l-18.797-1.047l-8.889,0.551c-2.54,2.162-8.553,7.995-12.283,13.216c-5.382,7.533-4.076,16.879,1.49,23.035
					c0.064,1.2,0.277,2.497-0.316,7.197c-0.823,6.515-1.627,11.261-2.484,16.97C73.272,192.181,110.305,195.95,124.257,179.333z"/>
				<path id="Chest_00000158010994866753770120000011878926505109500858_" style="opacity:0.3;fill:#FFFFFF;" d="M124.257,179.333
					c-2.713-8.223-2.703-12.401-1.486-17.995c1.217-5.594,3.268-12.293,3.132-11.277c0,0-8.228-6.745-5.485-26.252l-12.518-3.247
					l-18.797-1.047l-8.889,0.551c-2.54,2.162-8.553,7.995-12.283,13.216c-5.382,7.533-4.076,16.879,1.49,23.035
					c0.064,1.2,0.277,2.497-0.316,7.197c-0.823,6.515-1.627,11.261-2.484,16.97C73.272,192.181,110.305,195.95,124.257,179.333z"/>
			</g>
			<g id="Head_00000135663898078078545110000013327417591235146149_">
				<g id="Head_00000018945451669956113420000005983769541234325918_">
					<g id="Head_00000128451672862706867100000008082605327925120187_">
						<g id="XMLID_00000044151481505666863780000011944128665154920880_">
							<g id="XMLID_00000153695960628360815510000008248420171858499238_">
								<path id="XMLID_00000007402096938435347950000015652528367347228295_" style="fill:#B16668;" d="M110.459,106.526
									c2.169,0.439,4.253-0.582,5.599-1.985c2.987-3.115,3.317-6.333,1.989-8.503c-1.091-1.784-3.839-2.96-5.8-1.801
									c-2.098,1.239-2.181,2.28-2.991,3.708c-0.831,1.465-2.8,0.267-2.025-5.516c-3.995-1.931-3.233-8.546-5.363-11.288
									c-3.333-4.291-8.965-3.29-10.806-2.327c-1.6-1.323-4.85-2.017-7.636-0.615c-2.733,1.376-5.982,3.102-5.507,12.821
									c0.137,2.795-0.688,5.332-0.71,7.633c-0.059,6.366,0.996,10.82,3.267,12.952c1.667,1.564,5.032,3.629,8.794,3.48
									l-0.167,4.429c0,0-10.971,10.458,2.892,9.689c10.388-0.576,15.838-8.458,15.838-8.458l0.363-15.91
									C108.196,104.837,108.398,106.109,110.459,106.526z"/>
							</g>
							<g>
								<path style="fill:#9A4A4D;" d="M89.426,103.307c0.55,1.584,2.305,2.424,3.92,1.876c1.615-0.548,2.479-2.276,1.929-3.86
									L89.426,103.307z"/>
								<path style="fill:#F28F8F;" d="M95.427,102.302c-0.001,1.262-0.797,2.445-2.081,2.881c-0.358,0.122-0.723,0.165-1.08,0.157
									C92.296,103.65,93.707,102.294,95.427,102.302z"/>
							</g>
							<g>
								<g id="XMLID_00000160188949330627919070000000068714381520528021_">
									<path id="XMLID_00000132781774056532214170000000150213920525075642_" style="fill:#263238;" d="M80.313,88.933
										l4.016-1.235c-0.315-1.114-1.47-1.741-2.579-1.4C80.641,86.639,79.997,87.819,80.313,88.933z"/>
								</g>
								<g id="XMLID_00000029010007285738783210000001010878530837186702_">
									<path id="XMLID_00000013151332025461502960000002997691411912588965_" style="fill:#263238;" d="M95.441,87.604
										l3.932,2.179c0.659-1.051,0.312-2.392-0.775-2.993C97.513,86.188,96.099,86.553,95.441,87.604z"/>
								</g>
								<path style="fill:#263238;" d="M97.839,92.691c-0.015,0.907-0.763,1.63-1.67,1.615c-0.907-0.015-1.63-0.763-1.615-1.67
									c0.015-0.907,0.763-1.63,1.67-1.615C97.131,91.036,97.854,91.784,97.839,92.691z"/>
								<path style="fill:#263238;" d="M84.814,92.182c-0.015,0.907-0.763,1.63-1.67,1.615c-0.907-0.015-1.63-0.763-1.615-1.67
									c0.015-0.907,0.763-1.63,1.67-1.615C84.107,90.527,84.83,91.275,84.814,92.182z"/>
								<g>
									<g id="XMLID_00000106861418948876819600000017973848797584002706_">
										<path style="fill:#9A4A4D;" d="M84.991,97.18l5.82,2.593l1.158-11.339C89.69,90.764,86.557,94.745,84.991,97.18z"/>
									</g>
								</g>
							</g>
						</g>
					</g>
				</g>
				<path style="fill:#9A4A4D;" d="M89.27,115.086c5.419-0.105,12.711-1.871,14.717-5.268c-1.145,3.679-4.994,5.529-8.053,6.316
					c-3.718,0.957-6.657,1.013-6.657,1.013L89.27,115.086z"/>
			</g>
			<g id="Arm_00000157310540102123792850000005686559689722824096_">
				<g>
					<path style="fill:#B16668;" d="M138.262,201.678c-0.462,4.316,0.009,8.128-0.349,10.268c-0.358,2.139-0.457,3.311-0.922,5.007
						c-0.464,1.695-1.887,3.525-1.887,3.525s-0.941,2.595-1.966,4.163c-1.021,1.561-3.438,3.546-3.444,3.559
						c-0.891,2.026-0.881,2.238-1.264,3.104c-0.124,0.281-0.264,0.632-0.527,0.79c-0.225,0.135-0.559,0.045-0.766-0.116
						c-0.573-0.444-0.62-1.044-0.672-1.341c-0.23-1.332,0.32-2.588,0.697-3.887c0.513-1.77,1.055-3.471,1.275-5.307
						c-0.034,0.279-0.294,0.676-0.418,0.923c-0.234,0.465-0.353,0.964-0.571,1.443c-1.034,2.271-2.067,4.542-3.101,6.813
						c-0.096,0.21-0.202,0.432-0.399,0.552c-0.231,0.141-0.541,0.1-0.767-0.048c-0.226-0.148-0.378-0.387-0.485-0.635
						c-0.402-0.939-0.215-2.015,0.021-3.009c0.308-1.298,0.688-2.579,1.136-3.835c0.469-1.314,0.931-2.738,1.198-4.114
						c0.28-1.447,0.538-2.671,0.557-4.143c0.007-0.586,0.267-3.118-1.043-2.163c-0.298,0.217-0.459,0.57-0.616,0.904
						c-0.461,0.983-0.998,1.952-1.784,2.701c-0.786,0.749-1.857,1.257-2.938,1.156c-0.165-0.016-0.335-0.047-0.474-0.138
						c-0.295-0.193-0.369-0.609-0.279-0.95c0.09-0.341,0.309-0.63,0.503-0.925c0.048-0.072,0.094-0.145,0.138-0.218
						c1.771-2.893,2.128-6.11,3.691-8.696c0.491-0.812,1.395-2.52,1.971-3.727c0.508-1.065,1.449-2.168,1.773-4.484
						c0.323-2.317-1.749-27.355-1.749-27.355l-5.571-18.417c-4.405-14.169-1.681-25.402,1.185-29.267
						c5.707,1.029,11.687,4.944,13.171,9.663c0.965,3.065,2.4,7.698,4.259,17.055c1.75,8.807,2.762,9.896,3.625,17.073
						c0.465,3.869,0.467,5.687-0.642,14.514C139.865,189.803,138.724,197.361,138.262,201.678z"/>
					<path style="fill:#9A4A4D;" d="M129.694,228.198c0.875-1.426,2.179-4.638,2.637-6.241c0.416-1.617,0.723-3.27,0.765-4.939
						c-0.317,1.636-0.636,3.259-1.085,4.853C131.594,223.472,130.321,226.654,129.694,228.198z"/>
					<path style="fill:#9A4A4D;" d="M135.105,220.476c0.431-0.726,0.66-1.54,0.865-2.346c0.165-0.817,0.311-1.64,0.294-2.481
						c-0.257,0.799-0.417,1.607-0.617,2.407L135.105,220.476z"/>
					<path style="fill:#9A4A4D;" d="M128.439,221.441c0.743-1.446,1.344-4.105,1.344-4.105s0.245,3.113-1.556,5.534L128.439,221.441
						z"/>
				</g>
			</g>
		</g>
	</g>
</g>
<g id="Character_3">
	<g id="Chartacter_00000016762308476185732210000000628324834360244128_">
		<g id="Bottom_00000036936062984482202340000015336170918455502001_">
			<g>
				<path style="fill:#FFBDA7;" d="M410.912,329.866l-1.185-15.305l16.884,1.635c0,0-0.475,8.276-0.835,12.957
					c-0.213,2.768,3.269,8.017,3.269,8.017s-8.062,4.171-12.278,2.509c-4.216-1.661-6.325-7.195-6.234-8.386
					C410.624,330.102,410.912,329.866,410.912,329.866z"/>
				<path style="fill:#263238;" d="M451.022,354.87c0.267,0.003,0.64,2.851-0.823,4.044c-1.689,1.376-6.627,3.613-13.111,2.73
					c-6.484-0.883-9.98-2.863-12.556-4.992c-2.576-2.13-6.186-5.133-9.116-5.791c-2.722-0.612-5.672-1.839-6.537-2.663
					c-0.865-0.824-0.705-4.446-0.705-4.446L451.022,354.87z"/>
				<path id="XMLID_2922_" style="fill:#455A64;" d="M410.909,329.837c0,0-0.815,0-0.991,0.837
					c-0.211,0.996-0.457,3.897-0.904,5.531c-0.62,2.271-1.069,6.934-0.731,8.794c0.338,1.86,4.772,3.199,7.603,4.276
					c2.892,1.1,6.226,3.339,9.149,5.72c3.025,2.465,9.417,5.064,13.649,5.081c5.008,0.019,10.661-1.485,11.977-3.713
					c1.628-2.758,2.826-5.97-4.562-9.376c-1.399-0.645-6.305-3.522-7.977-4.564c-4.523-2.819-7.698-5.395-9.741-10.317
					c-0.239-0.575-0.489-1.212-1.051-1.51c-0.431-0.228-0.955-0.202-1.442-0.142c-1.239,0.154-6.179,0.757-7.312,1.264
					c-1.001,0.448-2.42,0.967-2.412,2.2c0.003,0.429,0.127,0.849,0.267,1.256c0.087,0.253,0.152,0.588-0.077,0.735
					c-0.217,0.138-0.501-0.025-0.693-0.195c-0.77-0.681-1.331-1.55-1.977-2.343c-0.346-0.424-0.724-0.832-1.163-1.169
					c-0.399-0.306-0.91-0.463-1.263-0.81C410.811,330.953,410.925,330.416,410.909,329.837z"/>
				<path style="fill:#37474F;" d="M425.034,354.996c-1.284-1.046-2.648-2.058-4.019-2.965l0-0.007c0,0,8.677,5.224,12.229,2.936
					c2.289-1.475,1.227-3.309,1.178-3.892c-0.049-0.583,8.019-4.605,10.229-4.834v0c0.611,0.335,1.124,0.605,1.446,0.754
					c7.389,3.406,6.19,6.618,4.562,9.376c-1.315,2.229-5.418,3.934-11.889,3.863C434.539,360.179,428.059,357.46,425.034,354.996z"
					/>
				<path style="fill:#37474F;" d="M433.831,349.364c4.598,1.835,2.62,2.646,1.325,2.81c-1.294,0.164-9.019-4.306-13.719-7.981
					c-4.903-3.833-7.976-7.998-9.798-9.406c-0.679-0.525-1.409-1.169-2.058-1.77c0.132-0.981,0.24-1.874,0.338-2.342
					c0.177-0.837,0.991-0.837,0.991-0.837c0.016,0.579-0.098,1.116,0.348,1.555c0.353,0.347,0.864,0.503,1.263,0.81
					c0.439,0.337,0.817,0.745,1.163,1.169c0.646,0.793,1.206,1.661,1.977,2.343C419.64,340.703,429.233,347.529,433.831,349.364z"/>
				<g>
					<g>
						<path style="fill:#263238;" d="M434.834,351.514c-0.102-0.001-0.204-0.034-0.288-0.103c-0.194-0.156-0.221-0.434-0.058-0.622
							c1.32-1.527,7.533-5.117,10.926-4.719c0.251,0.028,0.43,0.249,0.4,0.49c-0.029,0.242-0.231,0.408-0.507,0.386
							c-3.168-0.364-9.072,3.2-10.117,4.41C435.099,351.462,434.967,351.516,434.834,351.514z"/>
					</g>
					<g>
						<path style="fill:#263238;" d="M430.833,349.075c-0.102-0.001-0.204-0.035-0.288-0.103c-0.194-0.156-0.219-0.435-0.058-0.622
							c1.319-1.526,7.53-5.113,10.926-4.718c0.251,0.029,0.431,0.249,0.4,0.49c-0.029,0.242-0.25,0.414-0.507,0.386
							c-3.17-0.36-9.072,3.198-10.118,4.409C431.098,349.023,430.965,349.077,430.833,349.075z"/>
					</g>
					<g>
						<path style="fill:#263238;" d="M426.829,346.763c-0.102-0.001-0.204-0.035-0.288-0.103c-0.194-0.156-0.219-0.434-0.058-0.622
							c1.32-1.527,7.533-5.12,10.926-4.718c0.251,0.029,0.43,0.249,0.4,0.491c-0.029,0.241-0.246,0.414-0.507,0.386
							c-3.17-0.364-9.072,3.198-10.118,4.409C427.093,346.711,426.961,346.765,426.829,346.763z"/>
					</g>
					<g>
						<path style="fill:#263238;" d="M423.124,344.132c-0.102-0.001-0.204-0.035-0.288-0.103c-0.194-0.156-0.219-0.434-0.058-0.621
							c1.318-1.527,7.546-5.116,10.926-4.718c0.251,0.028,0.431,0.249,0.4,0.49c-0.029,0.241-0.248,0.413-0.507,0.386
							c-3.165-0.362-9.072,3.198-10.118,4.408C423.389,344.079,423.257,344.133,423.124,344.132z"/>
					</g>
					<g>
						<path style="fill:#263238;" d="M419.495,341.501c-0.099-0.001-0.199-0.033-0.283-0.099c-0.197-0.153-0.226-0.432-0.068-0.62
							c1.814-2.166,8.313-5.151,11.705-4.754c0.251,0.028,0.431,0.249,0.4,0.49c-0.029,0.242-0.249,0.408-0.507,0.386
							c-3.053-0.355-9.277,2.514-10.888,4.434C419.764,341.448,419.629,341.503,419.495,341.501z"/>
					</g>
				</g>
			</g>
			<g>
				<path style="fill:#FFBDA7;" d="M381.607,339.948l3.105-14.777l-17.479-1.754l-0.019,14.128c0,0-1.573,5.134-0.415,6.925
					c1.158,1.791,12.789,3.212,13.798,1.94C381.606,345.138,381.607,339.948,381.607,339.948z"/>
				<path style="fill:#263238;" d="M381.536,371.785c-0.323,4.542-1.121,7.505-2.914,10.037c-1.793,2.532-5.147,3.1-8.532,2.039
					c-3.385-1.061-7.712-3.511-8.657-7.528c-0.944-4.018-0.729-6.701,0.07-10.871L381.536,371.785z"/>
				<path id="XMLID_1428_" style="fill:#455A64;" d="M367.214,337.545c-1.397-0.014-0.79,6.162-1.638,12.234
					c-0.909,6.508-3.08,9.053-3.889,14.383c-0.924,6.09-0.589,8.873,1.751,12.792c2.339,3.919,10.688,8.258,14.852,3.259
					c3.395-4.076,3.567-8.889,3.304-15.067c-0.273-6.387-0.52-10.884-0.201-15.688c0.305-4.592,1.429-8.716,0.219-9.328
					c-0.098,0.67-0.195,1.522-0.299,2.18c-0.08,0.504-0.237,2.991-1.019,2.951c-0.068-0.595-0.051-1.143-0.004-1.74
					c0.041-0.519-0.003-1.092-0.372-1.52c-0.372-0.431-1.724-0.93-2.29-1.078c-1.373-0.361-3.817-0.776-5.213-1.006
					c-0.695-0.114-1.393-0.202-2.091-0.251c-0.567-0.04-1.234-0.051-1.772,0.086c-0.33,0.084-0.637,0.273-0.761,0.564
					c-0.092,0.215-0.076,0.461-0.078,0.698c-0.003,0.426-0.065,0.848-0.184,1.251c-0.052,0.178-0.191,0.389-0.391,0.328
					c-0.162-0.049-0.225-0.239-0.225-0.391c0-0.744,0.107-1.276,0.151-2.138c0.02-0.398,0.095-0.938,0.104-1.338
					C367.175,338.332,367.182,337.937,367.214,337.545z"/>
				<path style="fill:#37474F;" d="M362.016,362.436c-0.142,0.878-1.008,6.696,0.741,7.9c1.892,1.303,2.968-3.238,2.968-3.238
					s4.466-0.882,10.937,2.239c-0.34,0.927,0.639,4.158,2.424,3.639c1.773-0.516,2.518-7.21,2.528-7.297
					c0.229,5.922-0.028,10.578-3.324,14.534c-4.164,4.999-12.513,0.661-14.852-3.259c-2.339-3.919-2.675-6.701-1.75-12.792
					C361.779,363.553,361.891,362.983,362.016,362.436z"/>
				<path style="fill:#37474F;" d="M366.23,367.534c-0.044,2.225-2.448,1.276-2.531-1.878c-0.083-3.154,1.856-10.464,1.876-15.877
					c0.104-7.433,0.241-12.248,1.638-12.234c-0.006,0.075-0.004,0.151-0.009,0.226l-0.206,3.103
					c-0.043,0.45-0.088,0.848-0.088,1.328c-0.067,4.541,0.233,13.344-0.225,17.463C366.228,363.785,366.274,365.309,366.23,367.534z
					"/>
				<path style="fill:#37474F;" d="M375.909,369.214c0.474-2.151,0.87-3.598,1.385-7.707c0.511-4.079,2.528-12.289,3.513-16.7
					c0.347-0.733,0.446-2.133,0.504-2.497c0.097-0.614,0.188-1.392,0.279-2.038c0.01-0.045,0.02-0.09,0.027-0.136
					c0.872,0.457,0.721,3.98,0.343,5.817c-0.378,1.838-0.851,3.81-1.31,6.443c-1.235,5.202-1.06,12.922-1.871,15.922
					C377.97,371.316,375.435,371.365,375.909,369.214z"/>
				<g>
					<g>
						<path style="fill:#263238;" d="M376.797,369.529c-0.065-0.011-0.128-0.034-0.188-0.066c-0.05-0.029-5.104-2.809-10.754-1.897
							c-0.278,0.043-0.56-0.13-0.631-0.387c-0.072-0.259,0.095-0.503,0.372-0.548c6.045-0.976,11.278,1.909,11.5,2.034
							c0.252,0.141,0.349,0.435,0.213,0.655C377.207,369.486,377,369.564,376.797,369.529z"/>
					</g>
					<g>
						<path style="fill:#263238;" d="M377.997,364.789c-0.058-0.01-0.115-0.029-0.172-0.057c-0.056-0.029-5.74-2.934-12.041-2.119
							c-0.279,0.032-0.555-0.146-0.619-0.406c-0.063-0.26,0.114-0.5,0.393-0.536c6.664-0.858,12.475,2.117,12.721,2.243
							c0.257,0.135,0.364,0.425,0.24,0.651C378.42,364.741,378.208,364.825,377.997,364.789z"/>
					</g>
					<g>
						<path style="fill:#263238;" d="M366.155,358.047c-0.195-0.034-0.371-0.168-0.437-0.354c-0.089-0.256,0.057-0.513,0.329-0.575
							c6.276-1.425,12.444,1.987,12.705,2.134c0.253,0.142,0.349,0.435,0.213,0.655c-0.135,0.22-0.453,0.278-0.7,0.142
							c-0.059-0.032-6.051-3.34-11.89-2.007C366.302,358.059,366.228,358.06,366.155,358.047z"/>
					</g>
					<g>
						<path style="fill:#263238;" d="M366.545,353.746c-0.192-0.033-0.365-0.164-0.433-0.346c-0.095-0.255,0.046-0.514,0.316-0.58
							c6.904-1.69,12.717,1.963,12.961,2.118c0.243,0.156,0.319,0.452,0.169,0.664c-0.151,0.211-0.475,0.256-0.713,0.1
							c-0.053-0.035-5.646-3.535-12.072-1.964C366.696,353.757,366.619,353.758,366.545,353.746z"/>
					</g>
					<g>
						<path style="fill:#263238;" d="M367.004,348.915c-0.189-0.033-0.361-0.16-0.431-0.34c-0.098-0.253,0.039-0.514,0.307-0.584
							c6.47-1.679,12.787,2.094,13.052,2.258c0.248,0.149,0.33,0.446,0.186,0.66c-0.143,0.215-0.46,0.271-0.708,0.116
							c-0.062-0.037-6.163-3.68-12.171-2.12C367.16,348.926,367.081,348.928,367.004,348.915z"/>
					</g>
				</g>
			</g>
			<g>
				<path id="XMLID_1427_" style="fill:#37474F;" d="M371.077,189.461c-3.246,35.525-2.711,80.024-2.711,80.024
					c-0.283,2.697-2.561,11.349-2.509,24.739c0.074,18.835,0.683,36.713,0.683,36.713c4.166,3.52,12.871,4.22,17.298,1.98
					c0,0,6.885-33.575,10.747-50.527c3.863-16.951,8.105-35.496,8.105-35.496l2.794,21.741c0,0-0.819,11.206-0.402,19.099
					c0.51,9.676,4.645,38.197,4.645,38.197c2.405,3.04,12.945,3.669,16.65,0c0,0,5.042-47.269,5.667-59.542
					c1.289-25.302-1.689-51.778-1.935-76.928H371.077z"/>
				<path id="XMLID_1424_" style="opacity:0.2;" d="M402.69,246.894l4.231-27.991c0,0,9.133-1.234,13.877-5.59
					c0,0-3.111,5.819-11.741,7.958l-4.173,20.523l0.599,26.841L402.69,246.894z"/>
			</g>
		</g>
		<g id="Top_00000051359936004596588220000016219359884891219606_">
			<g id="Arm_15_">
				<g>
					<path style="fill:#FFBDA7;" d="M435.835,130.137c6.162,7.988,17.135,19.936,17.135,19.936s8.109-5.765,11.614-10
						c1.525-1.842,1.955-4.623,1.734-6.168c-0.411-2.876,1.66-5.895,2.007-8.558c0.11-0.844-0.223-2.856,0.867-3.153
						c0.984-0.269,1.72,1.199,2.033,1.898c0.523,1.17,0.754,2.421,0.729,3.699c-0.012,0.631-0.208,1.269-0.104,1.902
						c0.237,1.442,1.719-0.777,1.981-1.192c0.697-1.101,1.127-2.353,1.446-3.609c0.479-1.881,0.741-3.827,1.447-5.635
						c0.216-0.553,0.479-1.1,0.892-1.526c0.413-0.425,0.999-0.716,1.589-0.656c0.253-0.569,0.518-1.155,0.972-1.582
						c0.454-0.427,1.144-0.644,1.716-0.395c0.62,0.27,0.613,1.054,0.586,1.973c0.937-0.42,1.539-0.151,1.764,0.39
						c0.224,0.54,0.346,1.236,0.456,1.811c0.135,0.702,0.234,1.255,0.271,1.658c0.3,0.037,0.592,0.303,0.8,0.577
						c0.681,0.896,0.904,2.081,0.914,3.171c0.025,2.647,0.438,5.766-0.754,8.239c-1.835,3.804-4.526,8.405-7.61,11.293
						c-1.343,1.258-3.127,3.667-4.668,5.559c-1.541,1.892-3.009,4.108-6.98,8.94c-4.314,5.249-8.735,9.382-10.869,10.635
						c-3.053,1.792-5.062,1.198-9.948-2.908c-5.257-4.418-20.364-19.77-20.364-19.77l-0.93-26.317
						C428.656,121.581,433.639,127.29,435.835,130.137z"/>
					<path style="fill:#F0997A;" d="M473.581,131.751c1.626,2.714,0.784,6.67-0.565,8.788
						C476.344,138.545,476.241,134.203,473.581,131.751z"/>
					<g>
						<path style="fill:#F0997A;" d="M479.205,117.077c-1.151,3.506-1.046,7.246-1.999,10.801
							C478.624,124.509,478.553,120.625,479.205,117.077L479.205,117.077z"/>
					</g>
					<g>
						<path style="fill:#F0997A;" d="M482.479,117.073c-0.469,0.212-0.648,0.756-0.799,1.207c-0.382,1.422-0.399,2.913-0.551,4.36
							c-0.161,1.933-0.613,3.827-1.059,5.716c1.143-2.709,1.507-5.677,1.615-8.598C481.807,118.855,481.721,117.708,482.479,117.073
							L482.479,117.073z"/>
					</g>
					<g>
						<path style="fill:#F0997A;" d="M484.971,120.932c-1.897-0.235-1.483,3.049-1.631,4.244c-0.027,0.827-0.139,1.641-0.252,2.468
							c-0.108,0.824-0.243,1.644-0.412,2.465c0.331-0.774,0.533-1.594,0.711-2.414c0.384-1.627,0.306-3.348,0.373-5
							C483.807,121.936,483.993,120.872,484.971,120.932L484.971,120.932z"/>
					</g>
				</g>
				<g>
					<path style="fill:#37474F;" d="M422.063,118.577c7.003,1.693,9.143,5.346,13.951,10.921c4.45,5.16,17.163,20.107,17.163,20.107
						l7.831-5.928c0,0-0.279,3.506,2.998,6.926c3.277,3.42,6.763,2.934,6.763,2.934s-2.346,3.62-7.618,9.747
						c-5.272,6.127-7.75,8.195-10.743,8.195s-5.12-1.198-10.379-5.639c-5.259-4.44-18.036-17.29-18.036-17.29L422.063,118.577z"/>
					<path style="fill:#263238;" d="M453.177,149.605c-1.845,1.449-4.938,4.951-5.012,9.311c-1.023-5.023,2.008-9.517,3.59-10.982
						L453.177,149.605z"/>
				</g>
			</g>
			<path id="Chest_00000015312356273762989370000014871725079774287491_" style="fill:#455A64;" d="M390.384,115.53
				c-3.497,0.722-19.584,4.277-24.439,6.416c0,0-1.685,17.293,1.638,32.705c0.764,3.546,2.899,13.8,3.346,21.313
				c0.603,10.134-1.58,14.473-2.173,22.438c0,0,12.243,7.988,36.959,6.126c19.406-1.462,24.914-9.24,24.914-9.24
				c0-20.91-0.154-33.021-0.792-47.131c-0.869-19.248-3.302-26.134-7.492-29.416l-15.178-3.024L390.384,115.53z"/>
			<g>
				<g id="Head_00000163069394884254172680000016119529817282435463_">
					<path style="fill:#263238;" d="M404.636,62.329c-5.655-0.645-9.807-0.261-14.091,2.083c-3.442,1.884-5.696,4.293-6.583,7.608
						c-2.348,0.269-4.526,2.651-5.586,4.763c-1.262,2.515-0.748,8.014-0.017,11.629c0.899,4.449,1.764,6.778,4.167,10.556
						c0.465,0.731,6.29,8.902,5.711,9.346c3.898-2.991,7.796-5.982,11.694-8.973c3.227-2.476,6.454-4.952,9.681-7.428
						c2.299-1.764,4.878-3.27,6.602-5.639c0.758-1.042,1.713-1.948,2.411-3.041c0.317-0.496,1.826-3.088,1.377-3.652
						c0.611,0.769,1.019,1.698,1.171,2.668c1.974-3.864,0.715-8.769-2.031-12.129C415.759,65.979,409.961,62.936,404.636,62.329z"/>
					<g id="XMLID_00000114791105671571828250000003147237638922612361_">
						<path style="fill:#FFBDA7;" d="M417.826,104.399c-0.936,3.144-3.702,6.048-7.096,6.973c-2.567,0.699-4.579,0.524-4.579,0.524
							l0.092,3.834c1.183,3.869,0.97,8.362-0.397,12.8c-2.164-1.428-18.889-11.873-18.889-11.873l0.303-15.319
							c0,0-2.059,2.43-5.642,0.287c-2.455-1.48-4.728-5.621-2.665-9.127c2.055-3.492,5.933-3.705,7.454-1.362
							c0.833,1.283,0.796,3.108,2.12,2.943c3.004-0.376,2.554-5.879,2.208-8.318c-0.032-0.225-0.067-0.466,0.031-0.671
							c0.108-0.226,0.348-0.352,0.566-0.475c1.69-0.958,2.855-2.675,3.478-4.515c0.622-1.84,0.751-3.81,0.757-5.752
							c2.53,1.506,5.144,2.909,7.947,3.81c3.081,0.991,6.322,1.355,9.538,1.714c1.085,0.121,2.545-0.1,3.412,0.791
							c1.006,1.034,1.34,2.242,1.523,3.554c0.367,2.626,0.111,5.501,0.381,8.136C418.829,96.858,418.914,100.747,417.826,104.399z"
							/>
						<path id="XMLID_00000137814896933842464370000001215705026256136321_" style="fill:#263238;" d="M411.969,83.913l3.669,1.324
							c0.343-1.048-0.2-2.195-1.214-2.56C413.411,82.311,412.311,82.864,411.969,83.913z"/>
						<path id="XMLID_704_" style="fill:#263238;" d="M400.31,83.718l-3.512,1.699c-0.451-1.007-0.029-2.204,0.94-2.673
							C398.708,82.275,399.859,82.711,400.31,83.718z"/>
						<path style="fill:#F0997A;" d="M406.15,111.893c-3.859-0.106-11.848-2.513-13.977-4.562c-2.128-2.05-3.137-6.333-3.137-6.333
							s0.477,5.435,2.144,7.792c1.668,2.357,5.732,3.293,8.197,3.821c2.465,0.528,6.808,0.72,6.808,0.72L406.15,111.893z"/>
					</g>
					<g>
						<polygon style="fill:#F0997A;" points="407.263,97.891 412.512,94.978 406.185,87.033 						"/>
						<g>
							<path id="XMLID_00000117677423109343511770000000913420528647568276_" style="fill:#B16668;" d="M401.509,99.723l5.704,1.843
								c-0.48,1.633-2.146,2.544-3.722,2.035C401.916,103.092,401.029,101.355,401.509,99.723z"/>
							<path style="fill:#F0997A;" d="M403.491,103.601c0.12,0.039,0.24,0.054,0.361,0.076c0.103-1.474-0.988-2.759-2.458-2.899
								C401.455,102.045,402.256,103.201,403.491,103.601z"/>
						</g>
						<g>
							<g>
								<path id="XMLID_00000121968603988028199430000010750559418441735103_" style="fill:#263238;" d="M414.633,89.197
									c0.346,0.848-0.242,1.165-1.06,1.496c-0.817,0.331-1.554,0.551-1.9-0.297c-0.346-0.848,0.036-1.804,0.853-2.135
									C413.344,87.929,414.287,88.349,414.633,89.197z"/>
								<path style="fill:#263238;" d="M411.754,88.618c0.351-0.235,0.771-0.382,1.176-0.496c0.397-0.112,0.821-0.169,1.232-0.131
									c0.689,0.065,1.064,0.209,1.279,0.302c0.028,0.012,0.062,0.104,0.011,0.101c-0.341-0.021-0.642-0.061-1.132-0.051
									c-0.413,0.008-0.981,0.121-1.376,0.241c-0.621,0.187-0.861,0.282-1.539,0.668c-0.158,0.09-0.465,0.28-0.494,0.305
									c-0.044,0.038-0.09-0.085-0.068-0.125C411.027,89.094,411.441,88.828,411.754,88.618z"/>
							</g>
						</g>
						<g>
							<g>
								<path id="XMLID_00000019672939684237777440000008510726900362508460_" style="fill:#263238;" d="M398.483,89.716
									c-0.256,0.88,0.363,1.134,1.21,1.377c0.848,0.244,1.603,0.386,1.859-0.494c0.256-0.88-0.224-1.791-1.071-2.035
									C399.634,88.321,398.739,88.837,398.483,89.716z"/>
								<path style="fill:#263238;" d="M401.286,88.84c-0.374-0.197-0.806-0.299-1.221-0.371c-0.407-0.07-0.834-0.083-1.238-0.002
									c-0.679,0.136-1.036,0.318-1.241,0.434c-0.027,0.015-0.051,0.11-0.001,0.101c0.337-0.056,0.632-0.127,1.12-0.168
									c0.412-0.035,0.988,0.019,1.394,0.096c0.637,0.122,0.885,0.191,1.6,0.504c0.167,0.073,0.491,0.23,0.523,0.252
									c0.048,0.033,0.081-0.094,0.055-0.131C402.059,89.238,401.619,89.016,401.286,88.84z"/>
							</g>
						</g>
					</g>
				</g>
			</g>
			<g>
				<g>
					<path style="fill:#F0997A;" d="M373.669,215.987c-2.536,1.833-7.436-0.404-8.874-1.279c-1.439-0.875-1.218-4.267-1.51-6.956
						c-0.293-2.689-2.428-6.645,1.052-6.578C367.817,201.241,377.161,207.202,373.669,215.987z"/>
					<path style="fill:#FFBDA7;" d="M368.96,121.581c-6.493,3.101-11.986,6.02-17.71,17.742
						c-5.213,10.676-12.228,23.641-15.031,31.73c-1.492,4.307-1.78,7.92,5.822,14.548c6.516,5.682,13.678,10.823,20.886,15.533
						c1.302,0.851,2.714,1.857,3.028,3.38c0.135,0.653,0.046,1.33,0.109,1.993c0.173,1.828,1.462,3.347,2.827,4.575
						c0.721,0.648,1.506,1.287,1.894,2.175c0.806,1.843-0.676,2.711-2.228,3.031c1.47,0.573,3.016,1.048,4.578,1.283
						c2.369,0.356,3.792-2.312,5.924-3.117c0.494-0.187,1.023-0.323,1.437-0.652c1.348-1.073,0.716-3.423,1.859-4.712
						c0.487-0.549,1.243-0.832,1.642-1.448c0.465-0.718,0.306-1.664,0.06-2.483c-1.297-4.316-4.861-8.143-8.039-11.204
						c-5.799-5.582-18.778-18.705-18.778-18.705l12.878-23.363C373.167,147.003,376.345,127.92,368.96,121.581z"/>
				</g>
				<path style="fill:#37474F;" d="M341.633,158.201c1.717-3.507,8.542-17.458,10.7-21.76c3.522-7.021,5.727-9.882,7.903-11.689
					c2.943-2.445,8.662-3.878,8.662-3.878c8.274,7.169,4.834,25.607,2.707,29.503c-2.126,3.896-13.55,24.853-13.55,24.853
					l12.301,12.525c0,0-0.207,2.783-4.092,6.585c-3.885,3.802-8.13,4.373-8.13,4.373s-9.956-6.9-15.191-11.188
					c-7.018-5.748-9.248-9.231-7.315-15.366C337.077,167.566,339.917,161.708,341.633,158.201z"/>
				<path style="fill:#263238;" d="M358.058,175.231c-2.702-2.437-6.81-4.668-8.797-4.898c0,0,3.333-1.087,9.814,3.027
					L358.058,175.231z"/>
			</g>
		</g>
	</g>
</g>
<g id="Character_2">
	<g id="Character_00000070841025158043345220000009147398208503207592_">
		<g id="Bottom_00000173851786632086993660000002848650679122308233_">
			<path style="fill:#C8856A;" d="M263.519,376.872c0.964-13.265-0.526-23.432,0.578-44.145c0.07-3.778,0.191-7.742,0.381-11.538
				h25.019c-1.52,6.771-3.016,13.531-4.277,19.391c-3.044,16.963-7.517,29.037-8.289,37.528c-0.233,2.027-2.529,21.927-3.478,26.485
				c-0.948,4.558-10.883,4.678-11.519-3.161C261.511,396.215,263.338,379.369,263.519,376.872z"/>
			<path style="fill:#C8856A;" d="M326.663,362.479c-0.345,5.257,0.114,7.332,2.174,9.542c4.315,4.63,10.57,9.037,15.977,13.073
				c-0.783,2.068-7.286,1.993-10.505,0.418c-5.143-2.515-10.247-6.352-12.002-7.651c-4.443-3.289-10.12-5.927-10.193-10.932
				c-0.012-0.623-0.181-0.795-0.149-0.893c-0.076-2.606-3.551-37.147-5.126-51.684h25.189
				C330.579,336.237,326.724,361.556,326.663,362.479z"/>
			<g>
				<path style="fill:#263238;" d="M354.015,390.383c0.275-0.003,0.722,3.023-0.757,4.327c-1.708,1.505-6.742,4.001-13.437,3.208
					c-6.695-0.793-10.338-2.823-13.037-5.033c-2.699-2.21-6.483-5.329-9.515-5.963c-2.816-0.59-5.88-1.83-6.789-2.689
					c-0.908-0.858-0.825-4.721-0.825-4.721L354.015,390.383z"/>
				<path id="XMLID_00000057141752836557358500000017010428338487453116_" style="fill:#37474F;" d="M311.826,364.622
					c0,0-0.504,0.021-0.668,0.917c-0.194,1.066-0.384,4.163-0.807,5.913c-0.588,2.434-0.945,7.413-0.556,9.387
					c0.389,1.974,4.984,3.299,7.923,4.383c3.001,1.107,6.484,3.416,9.546,5.886c3.169,2.556,9.807,5.085,14.165,5.102
					c6.653,0.026,10.942-1.825,12.247-4.23c1.614-2.976,0.305-4.676-7.377-8.136c-1.454-0.655-6.57-3.609-8.314-4.681
					c-1.843-1.133-3.611-2.395-5.244-3.817c-0.826-0.719-1.617-1.479-2.358-2.284c-0.653-0.709-1.571-1.565-1.963-2.451
					c-0.089-0.201-0.151-0.436-0.231-0.645c-0.23-0.602-0.389-1.158-0.517-1.786c-0.13-0.634-0.217-1.56-0.826-1.934
					c-0.699-0.43-1.951-0.362-2.736-0.294c-0.988,0.085-1.98,0.222-2.944,0.449c-1.123,0.264-2.423,0.378-3.079,1.442
					c-0.502,0.815-0.57,1.839-0.6,2.776c-0.014,0.446,0,0.896,0.001,1.342c0,0.19,0.085,0.533-0.183,0.456
					c-0.255-0.073-0.546-0.737-0.644-0.963c-0.218-0.498-0.359-1.031-0.596-1.52c-0.271-0.559-0.577-1.132-0.969-1.608
					c-0.366-0.444-0.764-0.87-1.223-1.22c-0.417-0.318-0.948-0.473-1.318-0.834C312.084,365.816,311.871,365,311.826,364.622z"/>
				<path style="fill:#FAFAFA;" d="M347.538,384.415c-9.625,0.767-12.594,6.747-12.963,10.432c2.396,0.82,4.862,1.356,6.854,1.363
					c6.653,0.026,11.216-1.825,12.521-4.23C355.472,389.174,354.394,386.934,347.538,384.415z"/>
				<g>
					<g>
						<path style="fill:#F0F0F0;" d="M333.101,384.668c-0.105,0.001-0.21-0.032-0.299-0.103c-0.203-0.162-0.235-0.458-0.073-0.661
							c1.323-1.656,5.167-3.871,8.671-3.527c0.259,0.025,0.449,0.255,0.423,0.513c-0.025,0.258-0.249,0.447-0.513,0.423
							c-3.271-0.311-6.797,1.865-7.847,3.179C333.372,384.606,333.238,384.667,333.101,384.668z"/>
					</g>
					<g>
						<path style="fill:#F0F0F0;" d="M328.927,382.296c-0.105,0.001-0.21-0.032-0.299-0.103c-0.203-0.162-0.235-0.458-0.073-0.661
							c1.324-1.658,5.169-3.878,8.671-3.527c0.259,0.024,0.449,0.256,0.423,0.514c-0.025,0.258-0.244,0.447-0.513,0.423
							c-3.271-0.316-6.798,1.865-7.846,3.179C329.198,382.234,329.064,382.295,328.927,382.296z"/>
					</g>
					<g>
						<path style="fill:#F0F0F0;" d="M325.055,379.577c-0.105,0.001-0.211-0.033-0.299-0.103c-0.203-0.162-0.235-0.458-0.073-0.661
							c1.323-1.657,5.183-3.874,8.671-3.527c0.259,0.025,0.449,0.256,0.423,0.513c-0.025,0.258-0.246,0.446-0.514,0.423
							c-3.267-0.313-6.797,1.865-7.846,3.179C325.326,379.515,325.191,379.575,325.055,379.577z"/>
					</g>
					<g>
						<path style="fill:#F0F0F0;" d="M321.259,376.857c-0.102,0.001-0.206-0.031-0.293-0.099c-0.206-0.159-0.243-0.455-0.083-0.66
							c1.819-2.349,5.972-3.928,9.472-3.583c0.259,0.025,0.449,0.256,0.423,0.514c-0.025,0.258-0.247,0.44-0.514,0.423
							c-3.152-0.308-7.024,1.141-8.639,3.223C321.535,376.793,321.397,376.855,321.259,376.857z"/>
					</g>
				</g>
			</g>
			<g>
				<path style="fill:#263238;" d="M276.575,408.146c-0.264,4.543-0.97,7.555-2.582,10.219c-1.612,2.664-4.652,3.501-7.732,2.721
					c-3.08-0.78-7.024-2.865-7.907-6.784c-0.882-3.919-1.397-6.605-0.698-10.817L276.575,408.146z"/>
				<path id="XMLID_00000050624638035828897090000013027148027081628315_" style="fill:#37474F;" d="M263.628,375.25
					c-1.269,0.099-1.643,6.199-2.375,12.306c-0.784,6.546-2.738,9.254-3.439,14.621c-0.8,6.132,0.214,8.872,2.363,12.579
					c2.148,3.708,9.755,7.345,13.503,2.035c3.056-4.329,3.182-9.13,2.904-15.253c-0.288-6.33,0.15-10.713,0.408-15.517
					c0.247-4.592,1.264-9.221,0.161-9.732c-0.085,0.674-0.168,1.53-0.258,2.192c-0.111,0.815-0.113,1.67-0.409,2.448
					c-0.129,0.341-0.412,0.699-0.527,0.144c-0.078-0.376-0.041-0.766,0.001-1.142c0.186-1.691-0.667-1.829-1.126-1.96
					c-0.997-0.285-4.935-0.769-5.886-0.834c-0.969-0.066-4.316-0.212-4.75,0.34c-0.294,0.374-0.336,0.999-0.427,1.773
					c-0.108,0.923-0.322,1.599-0.348,1.309c-0.061-0.661,0.068-2.379,0.084-2.794c0.016-0.398,0.081-0.94,0.086-1.34
					C263.598,376.035,263.602,375.642,263.628,375.25z"/>
				<path style="fill:#FAFAFA;" d="M257.462,405.731c-0.219,3.807,0.691,6.416,2.373,9.318c2.148,3.708,10.368,7.357,14.116,2.047
					c1.865-2.642,2.365-5.766,2.622-8.953C274.326,404.05,261.006,402.247,257.462,405.731z"/>
				<g>
					<g>
						<path style="fill:#F0F0F0;" d="M273.804,401.475c-0.053-0.006-0.105-0.019-0.156-0.043c-0.051-0.024-5.922-2.452-11.637-1.129
							c-0.253,0.054-0.505-0.1-0.565-0.353c-0.058-0.253,0.1-0.506,0.354-0.565c6.044-1.395,12.031,1.093,12.255,1.197
							c0.234,0.114,0.333,0.394,0.222,0.628C274.189,401.394,273.996,401.495,273.804,401.475z"/>
					</g>
					<g>
						<path style="fill:#F0F0F0;" d="M262.295,395.733c-0.178-0.018-0.338-0.137-0.399-0.317c-0.083-0.247,0.049-0.514,0.294-0.598
							c5.689-1.927,12.002,0.965,12.24,1.09c0.231,0.12,0.32,0.404,0.198,0.635c-0.121,0.229-0.409,0.313-0.634,0.198
							c-0.053-0.027-6.207-2.831-11.499-1.031C262.428,395.733,262.361,395.739,262.295,395.733z"/>
					</g>
					<g>
						<path style="fill:#F0F0F0;" d="M262.495,391.423c-0.174-0.018-0.332-0.133-0.395-0.309c-0.088-0.246,0.039-0.515,0.283-0.602
							c6.257-2.241,12.249,0.919,12.472,1.054c0.222,0.135,0.293,0.424,0.158,0.646c-0.135,0.222-0.43,0.294-0.646,0.158
							c-0.049-0.031-5.841-3.057-11.664-0.973C262.633,391.422,262.563,391.43,262.495,391.423z"/>
					</g>
					<g>
						<path style="fill:#EBEBEB;" d="M262.806,387.18c-0.172-0.017-0.328-0.13-0.393-0.303c-0.091-0.243,0.031-0.514,0.275-0.606
							c5.863-2.195,12.314,1.044,12.556,1.186c0.225,0.128,0.302,0.417,0.173,0.642c-0.128,0.226-0.415,0.307-0.642,0.172
							c-0.056-0.032-6.311-3.159-11.756-1.12C262.948,387.178,262.876,387.187,262.806,387.18z"/>
					</g>
				</g>
			</g>
			<path style="fill:#37474F;" d="M277.451,201.825c-5.705,10.404-9.938,18.907-10.516,49.843
				c-0.578,30.935-0.483,39.602-0.605,43.332c-0.121,3.73-2.448,10.313-3.18,28.772c-0.565,14.254,0.378,33.136,0.378,33.136
				s1.777,3.043,8.803,3.672c6.482,0.581,9.225-1.938,9.225-1.938s7.847-28.648,10.305-39.716
				c2.458-11.068,9.601-47.459,9.601-47.459l4.239,29.515c0,0-0.395,12.125,1.582,28.238s2.789,24.357,2.789,24.357
				s4.49,2,10.036,1.917c5.545-0.083,8.165-1.658,8.165-1.658s4.717-29.649,5.79-60.845c0.628-18.253-1.88-63.333-3.585-90.966
				L277.451,201.825z"/>
			<path style="fill:#263238;" d="M301.462,271.467l5.787-35.121c0,0,12.213-0.873,19.001-7.972
				c-2.753,7.542-12.775,12.824-17.179,13.88l-5.17,28.819l1.801,29.91L301.462,271.467z"/>
			<path style="fill:#263238;" d="M289.185,206.975c-1.658,2.621-2.903,5.482-3.965,8.386c-1.071,2.906-1.909,5.887-2.642,8.887
				c-0.697,3.009-1.276,6.043-1.673,9.104c-0.406,3.057-0.679,6.143-0.611,9.241c0.737-3.005,1.423-5.987,2.106-8.971
				c0.697-2.979,1.35-5.962,2.072-8.927c0.686-2.973,1.432-5.927,2.192-8.881C287.443,212.863,288.263,209.928,289.185,206.975z"/>
			<path style="fill:#263238;" d="M285.148,208.092c-1.559,1.419-2.925,3.012-4.178,4.687c-1.263,1.669-2.376,3.447-3.397,5.276
				c-0.989,1.847-1.885,3.75-2.577,5.737c-0.699,1.978-1.237,4.032-1.415,6.135l2.81-5.532c0.953-1.812,1.896-3.622,2.89-5.408
				c0.962-1.803,1.978-3.58,2.96-5.387C283.235,211.799,284.235,209.993,285.148,208.092z"/>
			<path style="fill:#263238;" d="M291.86,245.049c-1.332,9.576-2.529,19.165-3.735,28.743c-1.239,9.573-2.492,19.138-4.254,28.6
				c-1.809,9.45-3.613,18.976-5.296,28.484c-1.711,9.512-3.299,19.046-4.763,28.6c2.208-9.416,4.293-18.85,6.253-28.307
				c1.989-9.461,3.86-18.904,5.718-28.424c1.737-9.543,2.912-19.16,3.844-28.783C290.582,264.339,291.277,254.699,291.86,245.049z"
				/>
			<path style="fill:#263238;" d="M323.534,241.945l1.577,25.194c0.232,4.198,0.503,8.392,0.693,12.588
				c0.192,4.189,0.441,8.401,0.371,12.544c-0.086,4.161-0.341,8.375-0.553,12.568l-0.635,12.602
				c-0.43,8.402-0.767,16.813-1.001,25.234c0.989-8.365,1.833-16.743,2.517-25.133c0.689-8.399,1.332-16.765,1.617-25.239
				c-0.027-8.515-0.747-16.88-1.501-25.279C325.842,258.636,324.832,250.268,323.534,241.945z"/>
		</g>
		<g id="Top_00000061429505488569717610000003284872268466676381_">
			<path id="Hair_00000021084959889298811980000014825304631235206540_" style="fill:#263238;" d="M279.727,104.319
				c-0.726-8.095,16.235-18.079,31.644-9.198c15.41,8.882,10.702,18.732,9.877,21.694l0.764,41.762l-45.992,1.421
				c0,0-1.053-35.062-1.563-40.75C273.947,113.56,274.072,106.76,279.727,104.319z"/>
			<g>
				<path style="fill:#BA68C8;" d="M315.085,149.225c7.982,0.894,11.349,2.802,14.681,6.005c4.394,4.224,8.331,11.554,12.242,20.749
					c4.894,11.508,6.84,22.039,3.79,25.831c-3.05,3.792-11.927,3.699-11.927,3.699l-4.44-9.595L315.085,149.225z"/>
				<path style="opacity:0.2;" d="M328.001,187.895c8.589,0.601,13.685,4.904,13.685,4.904s-2.635-5.969-13.988-7.75
					L328.001,187.895z"/>
			</g>
			<path id="Chest_00000092426597422042232170000005769490044697284022_" style="fill:#F0F0F0;" d="M270.863,217.919
				c0.751-3.607,2.965-14.874,3.149-16.969c0.97-11.007-2.585-19.961-3.54-25.234c-2.081-11.483,2.298-20.814,4.914-23.169
				l6.437-2.02c2.019-0.428,4.329-0.311,6.986-1.043c6.611-1.822,12.236-0.709,14.782-0.53c1.255,0.089,7.133-0.218,7.133-0.218
				s4.357,0.485,4.363,0.489c0,0,6.322,4.425,10.367,11.159c3.088,5.14,3.677,8.821,4.515,19.146
				c1.154,14.234,1.455,27.471,1.503,36.493C319.883,223.65,286.386,226.336,270.863,217.919z"/>
			<g>
				<g>
					<path style="fill:#C8856A;" d="M317.669,190.859c1.776-3.842,4.191-8.749,5.293-11.502c1.139-2.847,1.339-3.196,3.337-4.685
						s3.935-2.81,5.863-3.914c1.034-0.592,1.379,0.661,0.709,2.291c-0.589,1.433-3.772,3.491-3.772,3.491s2.902-0.347,4.225-0.412
						c0.936-0.046,2.239,0.515,3.758,1.068c1.52,0.554,1.679,1.039,1.342,1.527c-0.338,0.488-0.982,0.94-2.495,0.854
						c-1.513-0.087-2.919-0.285-2.919-0.285l-3.263,0.514l-0.335,0.466c0,0,2.22,0.148,4.015,0.477
						c1.795,0.329,2.157,0.683,3.555,1.471c1.398,0.788,2.254,1.169,2.337,1.521c0.082,0.352-0.038,1.363-1.834,1.305
						c-1.796-0.058-3.517-1.009-3.517-1.009l-3.853-0.272l-1.713,1.599c0,0,2.175,0.01,3.439,0.098
						c1.264,0.088,3.569,0.828,4.096,1.109c0.526,0.28-0.141,1.444-1.115,1.795c-0.974,0.351-3.613-0.461-4.989-0.127
						c-1.376,0.334-3.809,1.451-3.809,1.451L317.669,190.859z"/>
					<path style="fill:#AF6152;" d="M317.669,190.859c0.144-0.312,0.63-1.352,0.782-1.676c1.489-0.064,5.937-0.538,7.706-0.904
						c1.195-0.247,2.27-0.271,4.762-0.114l-0.002,0.004c-0.401-0.014-0.485,0.005-0.485,0.005c-1.376,0.334-4.409,1.519-4.409,1.519
						L317.669,190.859z"/>
					<path style="fill:#AF6152;" d="M322.787,183.375c0.535-0.608,1.01-1.267,1.441-1.954c0.435-0.685,0.796-1.41,1.216-2.086
						c0.385-0.699,0.871-1.309,1.51-1.77c0.629-0.467,1.377-0.774,2.145-1.024c-0.802,0.098-1.602,0.341-2.307,0.786
						c-0.713,0.434-1.255,1.12-1.668,1.816c-0.404,0.709-0.767,1.427-1.143,2.134C323.605,181.986,323.197,182.677,322.787,183.375z
						"/>
					<path style="fill:#AF6152;" d="M322.489,185.881c0.651-0.397,1.237-0.89,1.802-1.397c0.565-0.509,1.088-1.06,1.628-1.587
						c0.532-0.535,1.039-1.113,1.567-1.628c0.529-0.505,1.152-0.974,1.926-0.995c-0.777-0.143-1.538,0.299-2.117,0.78
						c-0.597,0.498-1.086,1.064-1.642,1.581C324.603,183.732,323.594,184.839,322.489,185.881z"/>
					<path style="fill:#AF6152;" d="M324.583,187.312c0.668-0.34,1.225-0.821,1.839-1.175c0.295-0.198,0.61-0.351,0.938-0.479
						c0.328-0.13,0.676-0.213,1.042-0.291c-0.367-0.078-0.751-0.066-1.125,0.015c-0.375,0.08-0.722,0.252-1.051,0.437
						C325.595,186.237,325.054,186.734,324.583,187.312z"/>
				</g>
				<g>
					<g>
						<path style="fill:#C8856A;" d="M285.826,198.384c1.857-0.406,4.756-1.002,8.776-1.719c3.466-0.618,18.021-4.466,21.514-4.914
							l12.128,7.652c-3.052,2.112-11.396,5.996-15.725,7.822c-6.19,2.612-13.327,5.596-19.712,7.969
							C292.623,209.522,289.306,201.603,285.826,198.384z"/>
						<path style="fill:#AF6152;" d="M316.116,191.751l12.128,7.652c-3.052,2.112-11.396,5.996-15.725,7.822
							c-1.31,0.553-2.669,1.124-4.048,1.701c-5.832-1.852-13.24-5.432-20.152-7.527c0,0-0.06-0.049-0.158-0.13
							c-0.746-1.152-1.535-2.147-2.335-2.887c1.857-0.406,4.756-1.002,8.776-1.719C298.068,196.047,312.623,192.199,316.116,191.751
							z"/>
					</g>
					<g>
						<path style="fill:#BA68C8;" d="M260.896,167.352c0.572-7.061,4.776-11.9,14.49-14.806c5.973,3.929,6.989,12.652,6.96,24.489
							l-0.914,21.601c0,0,2.719,0.115,4.395-0.251c3.479,3.218,7.492,11.42,7.677,17.093c-5.747,1.691-13.979,4.219-17.192,4.444
							c-7.124,0.499-13.817,0.566-14.79-6.007c-1.605-10.847-1.462-15.639-1.43-25.141
							C260.133,176.382,260.479,172.505,260.896,167.352z"/>
						<path style="opacity:0.2;" d="M288.319,201.401c-2.306-0.518-4.026-0.49-4.903-0.548c-4.665-0.309-10.626,1.56-11.841,4.506
							c0,0,1.363-5.097,9.858-6.723c0,0,2.958,0.223,4.703,0.058C286.859,199.418,287.598,200.337,288.319,201.401z"/>
					</g>
				</g>
				<path style="fill:#C8856A;" d="M295.952,201.276c4.928,1.031,23.583,5.444,40.507,4.12c1.077-2.104,0.843-6.024,0.182-9.497
					c-0.654-3.438-2.539-6.171-4.029-7.572c-0.924-0.139-1.559-0.185-2.179-0.154c-13.249,2.423-22.471,1.633-36.177,3.519
					c-5.618,0.773-12.733,5.034-12.733,5.034l-0.091,1.909C281.432,198.636,291.024,200.245,295.952,201.276z"/>
			</g>
			<g id="Head_00000061440516546282005930000006805406513811905440_">
				<g>
					<path style="fill:#C8856A;" d="M288.316,145.283c-0.084-1.905-0.868-11.446-0.868-11.446c-0.042,0.715-3.392,2.843-6.671-0.671
						c-3.366-3.608-3.699-7.421-1.978-10.012c1.902-2.863,6.457-2.952,8.51,1.453c1.358,1.554,3.642-0.452,2.351-4.789
						c0.113-3.086,4.349-6.664,1.712-11.746c8.421-6.276,18.399-6.403,23.958-2.089c1.065,2.654,2.411,9.217,3.009,16.748
						c0.721,9.081-1.443,13.893-3.802,15.788c-2.482,1.994-6.51,2.944-9.46,2.802l0.346,3.174l0,0
						c0.155,1.591,0.193,3.063,1.754,3.538c1.173,0.357,3.543,0.664,3.543,0.664s3.823,5.686-6.051,6.79
						c-15.739,1.76-22.85-5.013-22.85-5.013s1.476-0.44,3.935-1.296C288.309,148.29,288.4,147.188,288.316,145.283z"/>
					<g id="XMLID_00000115487119560216497550000015121012962928259224_">
						<path id="XMLID_00000111881984037796140700000007442749905267005847_" style="fill:#AF6152;" d="M305.079,141.321
							c-6.819-0.329-12.659-1.337-16.019-6.934c0,0,0.215,3.177,4.069,6.217c3.523,2.78,12.212,3.119,12.212,3.119L305.079,141.321z
							"/>
					</g>
					<g>
						<g id="XMLID_00000027581188985716895370000001027241969073874574_">
							<path id="XMLID_00000031177539290629866340000002945028807950306433_" style="fill:#AF6152;" d="M301.991,129.062
								l5.334,1.403c-0.356,1.53-1.839,2.457-3.311,2.07C302.54,132.148,301.635,130.593,301.991,129.062z"/>
							<path style="fill:#FFA8A7;" d="M302.389,130.262c1.466-0.114,2.769,0.84,3.153,2.21c-0.477,0.165-1.002,0.201-1.528,0.062
								c-1.057-0.278-1.813-1.16-2.029-2.199C302.118,130.306,302.249,130.273,302.389,130.262z"/>
						</g>
						<path id="XMLID_00000073679419830043123420000013647950438243480717_" style="fill:#263238;" d="M314.447,113.301
							l-4.208-0.813c0.181-1.185,1.27-1.963,2.432-1.738C313.833,110.974,314.628,112.117,314.447,113.301z"/>
						<path id="XMLID_00000033369735905638306430000012192133626304480134_" style="fill:#263238;" d="M296.491,114.423l3.995-1.702
							c-0.43-1.135-1.673-1.673-2.777-1.203C296.607,111.988,296.061,113.289,296.491,114.423z"/>
						<path id="XMLID_00000145031131131940800840000012181145539061343917_" style="fill:#263238;" d="M311.062,118.537
							c-0.023,0.98,0.759,1.815,1.746,1.866c0.987,0.051,1.806-0.704,1.829-1.684c0.023-0.981-0.758-1.816-1.745-1.866
							C311.904,116.803,311.085,117.557,311.062,118.537z"/>
						<path id="XMLID_00000005261659474522786740000013081889628340660363_" style="fill:#263238;" d="M297.34,118.825
							c-0.023,0.98,0.759,1.815,1.746,1.866c0.988,0.05,1.807-0.704,1.829-1.684c0.024-0.981-0.758-1.816-1.745-1.866
							C298.182,117.091,297.362,117.845,297.34,118.825z"/>
					</g>
					<g>
						<g>
							<path style="fill:#455A64;" d="M291.965,114.794l-10.43,6.453c1.142-0.207,1.898-0.211,3.38,0.558l7.511-4.576
								L291.965,114.794z"/>
						</g>
						<path style="fill:#455A64;" d="M319.957,112.741c-2.698-0.188-6.342-0.113-8.531,0.704c-2.452,0.927-3.305,1.847-4.673,1.941
							c-1.466,0.091-2.421-0.715-5.081-1.32c-2.126-0.475-5.867-0.068-8.536,0.388c-0.923,0.066-1.754,0.389-1.722,1.62
							c0.149,1.152,0.904,1.297,1.132,2.225c0.567,3.213,1.575,7.205,5.79,7.185c8.697,0.08,5.55-8.263,8.755-8
							c1.163,0.2,1.085,2.439,1.862,3.995c0.295,0.59,0.663,1.186,1.156,1.677c2.957,2.861,8.255,0.924,8.948-2.102
							c0.655-1.515,0.426-3.886,1.122-5.207C320.824,115.223,321.301,113.007,319.957,112.741z M303.784,120.188
							c-0.125,0.667-0.414,1.634-1.116,2.465c-0.768,0.981-2.133,1.524-3.519,1.587c-1.873,0.085-3.785-0.702-4.354-2.504
							c-0.073-0.168-0.137-0.328-0.193-0.489c-0.434-1.335-1.058-4.187-0.374-5.05c1.243-1.451,7.473-1.652,9.392,0.367
							C304.148,117.267,304.04,118.838,303.784,120.188z M318.562,118.736c-0.169,0.946-0.539,2.994-2.29,3.995
							c-2.313,1.312-5.668,0.248-6.267-2.042c-1.637-4.78,0.192-5.997,4.978-6.711C318.94,113.783,319.205,114.799,318.562,118.736z
							"/>
					</g>
					<path style="fill:#AF6152;" d="M312.356,124.643l-5.499,2.998l-1.379-8.679c0.178-0.536,0.372-0.963,0.606-1.137
						L312.356,124.643z"/>
				</g>
			</g>
		</g>
	</g>
</g>
<g id="Character_1">
	<g id="Character_16_">
		<g id="Bottom_15_">
			<g>
				<g>
					<path style="fill:#FFA8A7;" d="M227.619,211.672h-58.625c-4.529,57.603-3.928,64.613-3.069,92.725
						c0.44,14.393,6.831,55.829,7.094,67.042c0.016,0.673,3.11,3.67,7.701,3.062c4.59-0.608,5.866-2.16,5.885-2.639
						c0.065-1.66,1.817-4.047,2.017-5.697c1.312-10.778,2.833-24.649,4.165-35.677c1.722-14.243-1.421-25.121-1.421-25.121
						l7.57-42.257c0.981,6.353,1.896,11.934,3.49,18.315l0.748,3.006c0.447,3.723,6.018,4.469,7.927,4.803
						c5.156,0.9,9.772-0.396,14.432-2.772c4.669-2.382,6.77-5.186,6.833-9.476l-0.172-2.479c-0.001-3.565-0.227-6.492-0.124-9.857
						C233.01,233.902,230.65,217.869,227.619,211.672z"/>
				</g>
				<path style="fill:#455A64;" d="M167.511,207.584c0,0-1.615,17.906-2.116,40.642c-0.385,17.478-1.557,43.511,0.268,64.161
					c1.825,20.65,5.253,43.591,5.253,43.591s2.883,2.703,10.785,2.313c7.902-0.391,9.388-2.999,9.388-2.999s3.765-27.2,3.547-34.476
					s-2.321-15.107-2.321-15.107l6.626-40.982c0,0,2.731,16.511,4.182,19.704c1.451,3.193,6.815,6.36,16.887,3.407
					c10.072-2.953,11.733-4.708,12.305-10.853c0.571-6.146,0.633-32.394,0.031-44.178c-0.602-11.784-5.933-25.222-5.933-25.222
					H167.511z"/>
				<path style="fill:#37474F;" d="M221.764,214.956c5.871,15.63,6.232,36.581,6.469,50.444c0.118,6.89,0.342,13.674,0.546,18.942
					c0.294-0.2,0.564-0.406,0.811-0.619c-0.198-5.175-0.409-11.706-0.523-18.337c-0.239-13.921-0.6-34.959-6.523-50.723
					L221.764,214.956z"/>
				<g>
					<path style="fill:#37474F;" d="M224.654,240.083c-1.356,0.046-2.568-0.255-3.665-0.904c-2.478-1.467-4.227-4.732-5.196-9.703
						c-2.146-11.012-2.997-15.999-3.005-16.048l0.821-0.139c0.009,0.049,0.858,5.028,3.003,16.027
						c0.921,4.728,2.537,7.805,4.802,9.146c1.593,0.943,3.498,1.039,5.824,0.297l0.253,0.793
						C226.481,239.875,225.537,240.052,224.654,240.083z"/>
				</g>
				<g>
					<path style="fill:#37474F;" d="M198.942,264.726l-3.182-24.225c0,0-12.817-1.679-18.913-10.266c0,0,0.972,10.331,15.975,14.044
						l2.171,19.338l-2.677,42.091L198.942,264.726z"/>
				</g>
			</g>
			<g>
				<g>
					<path style="fill:#263238;" d="M236.115,377.911c-0.584-4.36-2.431-6.984-8.381-6.556c-4.895,0.352-7.517,3.585-6.91,7.517
						L236.115,377.911z"/>
					<g>
						<g>
							<g>
								<path style="fill:#E0E0E0;" d="M221.84,321.56c0.867-0.646,2.375-0.824,3.368-0.397c0.497,0.214,0.771,0.538-0.598,1.053
									l6.581,58.988c-1.642,0.745-3.311,0.751-4.763,0.562l-6.581-58.988C221.215,322.263,221.406,321.884,221.84,321.56z"/>
								<path style="opacity:0.1;" d="M220.429,321.724c0.867-0.646,2.375-0.824,3.368-0.397c0.497,0.214,0.771,0.538,0.812,0.89
									l6.581,58.988c0.042,0.352-0.149,0.731-0.583,1.055c-0.867,0.647-2.374,0.824-3.368,0.397
									c-0.497-0.214-0.771-0.538-0.812-0.89l-6.581-58.988C219.805,322.426,219.996,322.047,220.429,321.724z"/>
								<path style="fill:#455A64;" d="M229.796,369.381c0.048,1.581-4.596,1.981-4.786,0.37c-0.762,0.435-1.348,0.715-0.993,2.992
									c0.355,2.277-3.106,2.854-2.908,6.078c0.487,7.898,4.049,6.466,8.431,6.23c2.291-0.124,4.988-1.582,5.895-3.355
									c0,0-0.026-3.523-0.176-4.366c-0.587-3.291-3.602-2.962-3.876-5.217C231.245,370.964,230.975,369.539,229.796,369.381z"/>
								<path style="fill:#455A64;" d="M223.646,320.848c0.507,0.187,0.798,0.497,0.858,0.846c0.06,0.349-0.111,0.738-0.527,1.084
									c-0.831,0.691-2.328,0.948-3.342,0.574c-0.507-0.187-0.798-0.497-0.858-0.846c-0.06-0.349,0.111-0.738,0.527-1.084
									C221.135,320.73,222.632,320.473,223.646,320.848z"/>
							</g>
							<g>
								<path style="fill:#E0E0E0;" d="M218.824,321.796c1.686-1.258,4.619-1.604,6.552-0.773c0.966,0.416,1.499,1.047,1.58,1.732
									l0.283,2.397c0.081,0.685-0.291,1.422-1.134,2.051c-1.686,1.258-4.619,1.604-6.552,0.773
									c-0.966-0.416-1.499-1.047-1.58-1.732l-0.283-2.398C217.609,323.163,217.98,322.425,218.824,321.796z"/>
								<path style="fill:#EBEBEB;" d="M225.375,321.023c0.966,0.416,1.499,1.047,1.58,1.731c0.081,0.685-0.291,1.423-1.134,2.052
									c-1.686,1.258-4.619,1.604-6.552,0.773c-0.966-0.416-1.499-1.047-1.58-1.731c-0.081-0.685,0.291-1.423,1.134-2.051
									C220.51,320.538,223.443,320.192,225.375,321.023z"/>
							</g>
							<g>
								<path style="fill:#455A64;" d="M210.031,298.982c4.308-3.395,12.256-4.442,17.239-2.284
									c2.381,1.031,3.542,2.585,3.536,4.232l-0.834,20.683c-0.002,0.71-0.737,1.507-2.184,2.23
									c-2.822,1.41-7.462,2.066-10.548,1.491c-1.586-0.296-2.499-0.863-2.679-1.55l-6.919-19.759
									C207.222,302.425,207.966,300.609,210.031,298.982z"/>
							</g>
						</g>
					</g>
					<g>
						<g>
							<g>
								<path style="fill:#263238;" d="M220.829,406.766c0.131,4.638,0.759,7.729,2.321,10.494c1.562,2.764,4.636,3.709,7.798,3.008
									c3.163-0.702,7.246-2.707,8.265-6.674c1.019-3.967,0.919-6.71,0.334-11.025L220.829,406.766z"/>
							</g>
							<g id="XMLID_00000027582864567777548850000009920299049566465444_">
								<path style="fill:#37474F;" d="M235.038,375.056c1.084,0.385,1.651,6.399,2.211,12.646c0.6,6.696,1.715,8.745,2.266,14.237
									c0.629,6.275,0.128,8.352-2.175,12.066c-2.302,3.714-10.166,7.189-13.824,1.663c-2.983-4.505-2.876-8.697-2.406-14.929
									c0.486-6.443,0.517-9.966,0.4-14.87c-0.113-4.687-1.438-9.136-0.299-9.623c0.066,0.69,0.917,5.973,1.806,5.422
									c0.388-0.064,0.479-0.721,0.428-1.936c-0.022-0.53,0.043-1.106,0.399-1.499c0.36-0.396,0.927-0.51,1.454-0.598
									c1.28-0.214,3.044-0.555,4.34-0.633c0.758-0.045,0.335-0.071,1.094-0.091c0.851-0.023,2.174-0.189,2.832,0.177
									c0.396,0.221,0.42,0.616,0.508,1.061c0.088,0.445,0.171,1.054,0.295,1.49c0.049,0.174,0.279,0.546,0.46,0.533
									c0.301-0.021,0.411-0.814,0.395-1.168c-0.019-0.426,0.035-0.92,0.03-1.347C235.246,377.25,235.128,376.155,235.038,375.056z
									"/>
							</g>
							<g>
								<g>
									<g>
										<path style="fill:#F0F0F0;" d="M225.555,405.546c0.06-0.004,0.119-0.02,0.176-0.046c0.047-0.024,4.813-2.284,9.993-0.735
											c0.255,0.075,0.522-0.071,0.596-0.323c0.077-0.254-0.069-0.521-0.323-0.597c-5.542-1.656-10.477,0.69-10.686,0.792
											c-0.238,0.115-0.338,0.402-0.221,0.641C225.178,405.458,225.367,405.56,225.555,405.546z"/>
									</g>
								</g>
								<g>
									<g>
										<path style="fill:#F0F0F0;" d="M224.385,401.02c0.054-0.004,0.108-0.016,0.161-0.039
											c0.053-0.023,5.881-2.493,11.665-0.971c0.256,0.063,0.517-0.086,0.586-0.342c0.067-0.257-0.087-0.519-0.343-0.586
											c-6.118-1.606-12.066,0.922-12.297,1.022c-0.242,0.108-0.352,0.391-0.245,0.633
											C223.996,400.925,224.189,401.034,224.385,401.02z"/>
									</g>
								</g>
								<g>
									<g>
										<path style="fill:#F0F0F0;" d="M236.982,396.36c0.182-0.013,0.348-0.129,0.417-0.31c0.091-0.249-0.034-0.525-0.282-0.618
											c-5.739-2.137-13.443,0.349-13.689,0.469c-0.239,0.116-0.338,0.402-0.221,0.641c0.117,0.237,0.407,0.332,0.641,0.221
											c0.055-0.026,7.593-2.426,12.933-0.431C236.847,396.356,236.915,396.365,236.982,396.36z"/>
									</g>
								</g>
								<g>
									<g>
										<path style="fill:#F0F0F0;" d="M236.164,392.284c0.179-0.013,0.342-0.126,0.413-0.303c0.097-0.248-0.024-0.526-0.27-0.622
											c-6.309-2.474-12.964,0.822-13.194,0.953c-0.23,0.131-0.311,0.424-0.18,0.654c0.131,0.231,0.429,0.313,0.654,0.181
											c0.051-0.03,6.497-3.196,12.369-0.895C236.024,392.279,236.096,392.289,236.164,392.284z"/>
									</g>
								</g>
								<g>
									<g>
										<path style="fill:#EBEBEB;" d="M235.919,387.337c0.176-0.012,0.339-0.122,0.41-0.296c0.101-0.245-0.016-0.525-0.262-0.626
											c-5.909-2.416-13.033,0.947-13.284,1.085c-0.234,0.124-0.321,0.415-0.195,0.649c0.124,0.234,0.414,0.325,0.649,0.196
											c0.059-0.031,6.98-3.286,12.466-1.042C235.774,387.331,235.847,387.342,235.919,387.337z"/>
									</g>
								</g>
							</g>
						</g>
					</g>
				</g>
				<g>
					<path style="fill:#37474F;" d="M232.626,304.798l0.003,0.075c0.031,0.899-0.169,2.021-1.587,3.453
						c-0.21,0.215-0.419,0.422-0.654,0.631c-1.916,1.749-6.117,3.083-9.017,3.348c-4.066,0.372-9.939,1.052-12.292-1.76
						c-1.892-2.262-1.977-5.042-2.399-6.681c-1.608-6.241-2.253-9.386-3.38-14.342c-1.127-4.955-1.798-7.759-0.926-8.097
						l0.753,3.009c0,0,4.538,5.231,16.907,1.967c4.957-1.311,7.921-3.137,9.681-4.823l0-0.008c0.226-0.216,0.427-0.431,0.612-0.638
						c1.928-2.15,1.991-3.944,1.991-3.944l0.157-2.498c1.045-0.16,0.942,1.46,1.009,4.901c0.067,3.432-0.254,13.285-0.552,17.146
						C232.747,298.905,232.787,301.177,232.626,304.798z"/>
					<path style="fill:#263238;" d="M227.872,287.341c0.554-0.06,0.954-0.558,0.894-1.112c-0.06-0.554-0.558-0.954-1.112-0.894
						c-0.554,0.06-0.954,0.558-0.894,1.112C226.82,287.001,227.318,287.401,227.872,287.341z M228.035,293.591
						c0.554-0.06,0.954-0.558,0.894-1.112c-0.06-0.554-0.558-0.954-1.112-0.894c-0.554,0.06-0.954,0.558-0.894,1.112
						C226.983,293.251,227.481,293.651,228.035,293.591z M229.175,299.317c-0.06-0.554-0.558-0.954-1.112-0.894
						c-0.554,0.06-0.954,0.558-0.894,1.112c0.06,0.554,0.558,0.954,1.112,0.894C228.835,300.368,229.235,299.871,229.175,299.317z
						 M227.906,304.983c-0.554,0.06-0.954,0.558-0.894,1.112c0.06,0.554,0.558,0.954,1.112,0.894
						c0.554-0.06,0.954-0.558,0.894-1.112C228.958,305.323,228.46,304.923,227.906,304.983z"/>
				</g>
			</g>
			<g>
				<g>
					<g>
						<path style="fill:#263238;" d="M147.89,392.283c-0.277,0.009-0.599,3.084,0.951,4.337c1.789,1.446,7.611,4.066,14.335,2.976
							c6.725-1.09,8.979-2.966,11.686-5.225c3.101-2.588,5.401-4.606,8.434-5.378c2.817-0.717,7.085-2.475,7.965-3.382
							c0.88-0.906,0.559-4.209,0.559-4.209L147.89,392.283z"/>
					</g>
					<g id="XMLID_00000057834058031479459080000011548446422441121708_">
						<path style="fill:#37474F;" d="M188.779,364.47c2.033,0.035,1.045,3.819,1.298,7.418c0.178,2.525,2.053,8.738,1.746,10.749
							c-0.308,2.01-7.833,4.13-10.752,5.351c-6.565,2.847-9.916,9.23-20.077,9.545c-5.208,0.161-11.271-1.278-12.692-3.65
							c-2.8-5.218,2.907-6.783,8.865-10.322c5.958-3.539,13.656-8.911,14.425-16.513c0.075-0.926,0.61-1.419,2.661-1.52
							c2.342-0.114,5.24,0.35,7.003,2.048c0.726,0.993,0.072,2.413,0.696,3.411c1.314,0.37,2.086-1.954,2.901-2.746
							C186.238,367.183,188.564,367.084,188.779,364.47z"/>
					</g>
					<g>
						<g>
							<g>
								<path style="fill:#F0F0F0;" d="M164.555,387.374c0.106-0.003,0.211-0.042,0.298-0.117c0.198-0.172,0.219-0.473,0.045-0.671
									c-1.409-1.616-5.386-3.689-8.906-3.188c-0.261,0.036-0.442,0.278-0.405,0.537c0.036,0.259,0.249,0.435,0.537,0.405
									c3.287-0.46,6.942,1.591,8.058,2.872C164.279,387.323,164.417,387.378,164.555,387.374z"/>
							</g>
						</g>
						<g>
							<g>
								<path style="fill:#F0F0F0;" d="M168.676,384.875c0.106-0.001,0.212-0.037,0.3-0.11c0.202-0.168,0.229-0.467,0.061-0.67
									c-1.37-1.648-5.296-3.809-8.83-3.393c-0.262,0.03-0.449,0.267-0.417,0.527c0.03,0.26,0.26,0.447,0.527,0.417
									c3.298-0.38,6.904,1.75,7.989,3.057C168.4,384.818,168.537,384.876,168.676,384.875z"/>
							</g>
						</g>
						<g>
							<g>
								<path style="fill:#F0F0F0;" d="M172.466,382.061c0.106-0.003,0.211-0.041,0.297-0.117c0.198-0.172,0.218-0.473,0.045-0.671
									c-1.408-1.617-5.386-3.692-8.906-3.187c-0.26,0.036-0.442,0.277-0.404,0.537c0.036,0.259,0.266,0.441,0.537,0.405
									c3.288-0.46,6.942,1.589,8.058,2.87C172.189,382.01,172.328,382.065,172.466,382.061z"/>
							</g>
						</g>
						<g>
							<g>
								<path style="fill:#F0F0F0;" d="M175.811,379.519c0.106,0.001,0.213-0.033,0.302-0.104c0.205-0.164,0.237-0.463,0.074-0.668
									c-1.337-1.675-5.238-3.914-8.762-3.563c-0.262,0.025-0.453,0.258-0.428,0.519c0.025,0.26,0.249,0.45,0.519,0.427
									c3.301-0.317,6.868,1.883,7.928,3.211C175.536,379.457,175.672,379.518,175.811,379.519z"/>
							</g>
						</g>
						<g>
							<g>
								<path style="fill:#F0F0F0;" d="M179.167,376.352c0.104,0,0.208-0.032,0.296-0.102c0.208-0.162,0.243-0.461,0.081-0.667
									c-1.849-2.366-6.053-3.942-9.588-3.577c-0.262,0.027-0.452,0.261-0.425,0.521c0.026,0.26,0.252,0.443,0.521,0.425
									c3.183-0.327,7.102,1.119,8.744,3.217C178.889,376.289,179.028,376.352,179.167,376.352z"/>
							</g>
						</g>
					</g>
				</g>
			</g>
			<path style="fill:#37474F;" d="M186.557,301.518c-0.551,3.449,0.224,6.826,1.121,10.737c0.799,3.48,1.704,7.425,1.953,12.413
				c0.394,7.9-1.767,24.815-2.895,32.927c0.313-0.079,0.604-0.163,0.875-0.249c1.143-8.268,3.243-24.87,2.852-32.72
				c-0.252-5.061-1.167-9.044-1.972-12.558c-0.915-3.983-1.636-7.129-1.11-10.418c1.063-6.65,3.629-42.735,3.236-60.542
				l-0.833,0.018C190.175,258.895,187.618,294.888,186.557,301.518z"/>
		</g>
		<g id="Top_00000167395589713491620960000013732206051398405777_">
			<g id="Arm_00000113354410778423201610000000493214295034858413_">
				<path style="fill:#F28F8F;" d="M157.659,216.542c0.587-0.135,1.247,0.178,1.513,0.719c0.214-0.154,0.343-0.434,0.596-0.505
					c0.309-0.088,0.598,0.182,0.788,0.442c1.471,2.014,1.415,5.008-0.13,6.966c-0.096,0.121-0.201,0.242-0.34,0.308
					c-0.16,0.076-0.346,0.07-0.522,0.06c-0.934-0.058-1.861-0.226-2.757-0.5c-0.895-0.274-1.848-0.745-2.156-1.63
					c-0.223-0.642-0.048-1.345,0.128-2.001c0.24-0.894,0.536-1.685,1.175-2.366C156.379,217.581,157.062,216.68,157.659,216.542z"/>
				<path style="fill:#FFA8A7;" d="M149.608,197.978c-6.921-8.845-6.871-10.677-4.589-15.623
					c1.245-2.698,6.882-11.985,13.551-21.109c7.344-10.048,11.124-15.315,22.424-16.782l-4.688,25.643l-13.415,16.526
					c0,0,7.228,15.245,8.727,19.328c2.156,5.871,0.443,14.162-4.271,17.874c-4.714,3.712-5.854,4.171-9.563,3.306
					c-3.709-0.865-4.665-1.249-4.979-2.498c-0.785-3.126-1.27-3.53,0.672-5.281c1.103-0.995,2.041-1.989,2.643-2.418
					c0.266-0.19,0.636-0.091,0.795,0.195c0.994,1.785-1.535,4.314-1.535,4.314s2.167,0.455,3.644,1.302
					c0.576-3.263-0.147-5.144,0.543-6.836c0.44-1.079,1.245-2.893,0.532-3.815C158.576,210.134,153.923,203.493,149.608,197.978z"/>
				<path style="fill:#263238;" d="M180.43,143.501c-7.288,0.925-11.986,3.178-18.333,12.051
					c-3.383,4.73-16.526,23.59-17.941,27.361c-1.415,3.77-1.904,5.53,1.83,10.737c3.921,5.467,6.522,8.622,6.522,8.622
					s4.123-4.136,15.31-5.948l-4.307-9.162l13.301-16.758L180.43,143.501z"/>
				<path d="M163.511,187.162c-1.576,2.285-7.833,2.772-10.413,2.211c3.332,2.47,9.117,1.648,11.158-0.627L163.511,187.162z"/>
			</g>
			<path id="Chest_00000119809626975452816550000016998674536670061976_" style="fill:#F0F0F0;" d="M216.151,143.333
				c10.953,2.999,11.783,3.195,11.783,3.195s9.307,20.348,5.089,35.23c-0.971,3.424-2.904,12.402-2.683,19.72
				c0.234,7.738,2.647,14.162,2.846,23.726c0,0-15.845,6.145-43.285,3.576c-21.544-2.017-24.071-5.672-24.071-5.672
				s0.262-30.339,0.922-44.253c0.933-19.659,7.969-31.496,13.678-35.354c9.002-1.911,15.443-2.152,19.659-2.049
				C204.305,141.556,208.377,141.204,216.151,143.333z"/>
			<g id="Head_00000023278158661483714360000005116742319019055241_">
				<g>
					<g id="XMLID_00000106107116267104459360000006781182290169161370_">
						<path style="fill:#37474F;" d="M182.118,107.437c3.933,9.646,30.893,24.42,30.893,24.42c0.009-0.017,0.018-0.035,0.027-0.052
							c0.803-1.55,1.459-3.042,2.632-4.337c1.29-1.424,2.344-3.147,3.348-4.762c2.012-3.236,3.641-6.722,4.432-10.425
							c1.225-5.731,0.239-12.122-3.727-16.631c-1.168-1.328-2.56-2.464-4.003-3.52c-6.74-4.935-17.023-5.869-24.672-2.703
							c-3.79,1.569-6.89,3.913-8.414,7.637C182.056,98.475,180.669,103.884,182.118,107.437z"/>
						<g id="XMLID_00000014606295948959158680000009612689244832548526_">
							<path style="fill:#FFA8A7;" d="M217.857,126.855c-3.403,0.8-4.381-1.418-4.381-1.418l-0.805,17.807
								c-6.408,8.445-26.687,5.658-21.116-0.823l0.299-6.371c0,0-2.344-0.17-4.494-0.684c-3.916-0.938-5.984-3.707-6.641-7.744
								c-1.027-6.314,0.412-22.636,2.528-28.072c4.233-2.953,17.633-2.768,25.916,3.087c-0.779,7.218,1.067,10.538,0.921,13.166
								c0.496,1.068,1.042,1.705,1.466,2.116c1.274,1.223,1.995-1.641,3.684-2.826c1.327-0.93,5.465-1.58,7.083,2.353
								C223.952,121.45,221.244,126.059,217.857,126.855z"/>
						</g>
						<g id="XMLID_00000028315353055975990410000004289103487935104133_">
							<path id="XMLID_00000176758354113429483080000012957182051459720893_" style="fill:#263238;" d="M198.345,112.922
								c-0.015,1.029,0.775,1.873,1.766,1.885c0.991,0.012,1.805-0.812,1.821-1.841c0.015-1.029-0.775-1.873-1.766-1.885
								C199.175,111.069,198.36,111.894,198.345,112.922z"/>
							<path id="XMLID_00000035493080396761584960000009088843123566950016_" style="fill:#37474F;" d="M200.087,108.022
								l3.805,2.174c0.582-1.093,0.202-2.467-0.849-3.067C201.992,106.529,200.668,106.929,200.087,108.022z"/>
							<path id="XMLID_00000040540866626217929310000004857401922567465629_" style="fill:#37474F;" d="M183.919,108.616
								l4.141-1.533c-0.383-1.168-1.621-1.772-2.765-1.349C184.152,106.157,183.536,107.447,183.919,108.616z"/>
							<path id="XMLID_00000027582028137027110200000006042299469611148217_" style="fill:#263238;" d="M184.856,111.873
								c-0.015,1.029,0.775,1.872,1.766,1.884c0.99,0.012,1.805-0.812,1.821-1.841c0.015-1.029-0.775-1.872-1.765-1.885
								C185.687,110.019,184.871,110.844,184.856,111.873z"/>
							<polygon id="XMLID_00000025429807068597188090000010948889236875921834_" style="fill:#F28F8F;" points="195.43,108.773 
								193.531,120.618 187.146,117.876 							"/>
						</g>
					</g>
				</g>
				<path id="XMLID_00000086680228143666491860000002767094609243559343_" style="fill:#B16668;" d="M198.632,123.612l-6.588,1.112
					c0.266,1.878,1.956,3.152,3.776,2.845C197.64,127.262,198.898,125.49,198.632,123.612z"/>
				<path style="fill:#F28F8F;" d="M197.797,124.641c0.278-0.018,0.547,0.005,0.808,0.046c-0.236,1.435-1.322,2.634-2.785,2.881
					c-0.367,0.062-0.725,0.044-1.07-0.015C194.716,126.047,196.051,124.753,197.797,124.641z"/>
				<path style="fill:#F28F8F;" d="M191.853,136.049c5.111,0.458,11.209-0.684,13.513-2.066c2.305-1.382,3.705-3.004,5.072-6.148
					c-1.069,4.412-1.558,6.027-4.918,8.102c-3.36,2.074-8.921,3.074-13.789,2.708L191.853,136.049z"/>
			</g>
			<g>
				<g>
					<g id="Arm_00000181048708590139573040000016412215676781894306_">
						<g>
							<path style="fill:#F28F8F;" d="M236.79,233.564c1.236-1.236,2.802-2.306,3.374-4.037c0.294-0.892,0.258-1.939-0.294-2.695
								c-0.115-0.158-0.255-0.31-0.294-0.502c-0.033-0.16,0.01-0.324,0.047-0.482c0.155-0.659,0.223-1.373-0.035-1.999
								c-0.219-0.53-0.671-0.956-1.21-1.14c0.359-0.957,0.401-2.032,0.117-3.014c-0.336-1.161-1.464-2.129-2.293-0.885
								c-0.404,0.607-0.712,1.283-0.982,1.959c-0.676,1.69-1.118,3.486-1.385,5.286c-0.28,1.885-0.982,7.219,1.913,7.611
								C235.973,233.696,236.615,233.739,236.79,233.564z"/>
							<path style="fill:#FFA8A7;" d="M227.924,147.038c11.966,4.559,11.555,5.597,17.784,15.168
								c6.147,9.446,14.748,22.224,16.616,26.826c2.312,5.698,2.757,7.864-3.447,13.525c-3.197,2.917-7.628,6.364-12.154,10.278
								c-3.572,3.09-7.851,6.34-11.319,9.548c-0.919,0.85-1.413,1.711-1.178,3.031c0.137,0.769,0.432,1.51,0.481,2.29
								c0.063,1.004-0.285,1.985-0.38,2.986c-0.094,1.002,0.167,2.169,1.05,2.636c0.427,0.226,0.93,0.248,1.412,0.236
								c-0.88,0.566-1.797,1.101-2.805,1.372c-1.008,0.271-2.128,0.255-3.045-0.247c-0.89-0.486-1.535-1.39-2.49-1.728
								c-0.515-0.182-1.079-0.182-1.6-0.348c-0.535-0.17-1.012-0.518-1.34-0.977c-0.52-0.728-0.701-1.748-1.462-2.215
								c-0.363-0.223-0.804-0.277-1.191-0.456c-0.791-0.365-1.269-1.223-1.406-2.089c-0.137-0.866,0.016-1.749,0.186-2.61
								c0.457-2.311,1.038-4.598,1.74-6.847c0.243-0.777,0.72-1.434,1.207-2.074c0.561-0.736,1.098-1.498,1.7-2.2
								c4.082-4.76,17.056-20.662,17.056-20.662l-16.366-19.813C226.974,172.673,221.82,160.972,227.924,147.038z"/>
							<g>
								<path style="fill:#F28F8F;" d="M236.79,233.564c-2.015,1.391-4.944,2.311-6.831,0.246c-0.471-0.413-0.986-0.852-1.637-1.038
									c-1.255-0.207-2.466-0.473-2.979-1.772c-0.277-0.546-0.491-1.211-1.068-1.658c-0.605-0.432-1.278-0.403-1.697-0.796
									c-0.446-0.361-0.739-0.913-0.868-1.491c-0.272-2.984,1.054-6.286,1.791-9.192c0.525-1.83,1.986-3.133,3.056-4.662
									c0,0,2.416-2.945,2.416-2.945c4.68-5.697,9.809-12.025,14.369-17.77c-4.775,5.55-10.01,11.803-14.72,17.467
									c0,0-2.432,2.928-2.432,2.928c-1.102,1.542-2.654,2.941-3.162,4.835c-0.555,1.833-1.029,3.692-1.423,5.567
									c-0.231,1.236-0.61,2.525-0.322,3.872c0.154,0.655,0.483,1.294,1.034,1.727c0.563,0.467,1.301,0.446,1.728,0.776
									c0.458,0.33,0.69,0.934,0.982,1.504c0.275,0.588,0.749,1.141,1.353,1.432c0.61,0.32,1.289,0.299,1.865,0.455
									c1.209,0.334,1.956,1.608,3.194,1.96C233.339,235.601,235.255,234.614,236.79,233.564L236.79,233.564z"/>
							</g>
							<path style="fill:#F28F8F;" d="M243.34,192.486c3.245,3.524,8.515,4.044,10.467,4.016
								c-6.998,2.496-11.639-2.581-11.639-2.581L243.34,192.486z"/>
						</g>
					</g>
				</g>
				<path style="fill:#263238;" d="M227.934,146.528c5.766,1.698,10.418,3.234,15.628,11.292
					c5.21,8.058,15.928,23.995,18.669,29.235c2.74,5.241,3.204,9.698,0.662,12.47c-2.542,2.772-10.586,9.718-10.586,9.718
					s-4.145-0.968-7.69-4.029s-5.611-8.27-5.611-8.27l3.684-4.489c0,0-11.516-13.335-15.434-18.15
					C223.337,169.491,222.82,151.415,227.934,146.528z"/>
				<path d="M242.689,192.455c2.677,3.076,8.99,2.753,11.378,2.365c-4.805,2.792-9.842,0.926-12.503-0.994L242.689,192.455z"/>
			</g>
		</g>
	</g>
</g>
</svg>
